<svg width="164" height="56" viewBox="0 0 164 56" fill="none" xmlns="http://www.w3.org/2000/svg">
<path d="M14.5611 1.44286L0.639893 31.3331H6.44108L15.6225 10.9808L24.8039 31.3331H30.7736L16.5512 1.13672L14.5611 1.44286Z" fill="#C0C0C0"/>
<path d="M39.4045 22.8998C39.3809 21.5993 39.561 20.3032 39.9383 19.0602C40.2462 18.0432 40.7663 17.1058 41.4633 16.3118C42.1146 15.5909 42.9195 15.031 43.8164 14.6749C44.7785 14.3024 45.8012 14.1183 46.8306 14.1324H47.1204V8.7604C45.411 8.61162 43.7073 9.10432 42.331 10.1454C41.025 11.2062 40.0146 12.5956 39.3999 14.1758V9.18204H34.3635V31.3387H39.3999L39.4045 22.8998Z" fill="#C0C0C0"/>
<path d="M51.6177 28.4586C52.6406 29.5153 53.8584 30.3565 55.2015 30.9342C56.6245 31.5449 58.1558 31.8519 59.7003 31.8363C61.5154 31.906 63.3185 31.5091 64.9426 30.6823C66.3286 29.9052 67.5718 28.8901 68.6171 27.682L65.6037 24.6593C64.8494 25.4365 63.9955 26.107 63.0653 26.6527C62.1822 27.1245 61.2061 27.3883 60.2091 27.4246C59.2121 27.4608 58.2199 27.2685 57.306 26.862C56.5242 26.4968 55.8224 25.9761 55.2419 25.3305C54.6538 24.671 54.198 23.9011 53.8999 23.0642C53.5773 22.1636 53.4164 21.2115 53.4249 20.2531C53.4176 19.3152 53.5786 18.3839 53.8999 17.5047C54.1971 16.6823 54.6375 15.9209 55.1999 15.257C55.7504 14.6136 56.4253 14.0923 57.1825 13.7255C57.968 13.3446 58.8285 13.1508 59.6988 13.1589C60.8154 13.1203 61.9216 13.388 62.9013 13.934C63.8057 14.4818 64.6322 15.1524 65.3581 15.9274L68.4547 12.5288C67.4439 11.388 66.2327 10.4489 64.8831 9.7595C63.274 9.00705 61.514 8.64766 59.7438 8.71006C58.2308 8.69602 56.7307 8.99363 55.334 9.58494C53.9372 10.1762 52.6728 11.049 51.6169 12.1506C49.5297 14.3438 48.3717 17.2815 48.3915 20.3329C48.3666 23.3667 49.5266 26.2867 51.6169 28.4524" fill="#C0C0C0"/>
<path d="M79.7559 27.9776C78.6974 28.014 77.6533 27.7211 76.763 27.1382C76.3691 26.8751 76.0495 26.5123 75.8356 26.0854C75.6216 25.6585 75.5208 25.1823 75.543 24.7037V24.62C75.5206 24.101 75.6304 23.5849 75.8619 23.1217C76.0935 22.6585 76.4388 22.264 76.8644 21.9763C77.9702 21.3003 79.2507 20.9786 80.539 21.0532C81.4598 21.0494 82.3788 21.1338 83.284 21.3051C84.0514 21.4447 84.8046 21.6553 85.5342 21.9345V23.3195C85.5428 23.982 85.3942 24.6367 85.1011 25.2285C84.8091 25.8067 84.392 26.3102 83.8811 26.7011C83.3276 27.1227 82.7056 27.4422 82.0434 27.6451C81.3022 27.8749 80.5307 27.988 79.7559 27.9807V27.9776ZM85.4114 28.6101V31.3329H90.3677V18.2002C90.3677 15.2348 89.5834 12.9339 88.0146 11.2975C86.4459 9.6611 84.0376 8.8429 80.7898 8.8429C79.2475 8.81454 77.7078 8.9838 76.2071 9.34668C74.9331 9.6853 73.6899 10.1344 72.4914 10.6891L73.8533 14.7597C74.8056 14.3531 75.7854 14.0163 76.7851 13.7521C77.8658 13.4864 78.975 13.3596 80.0868 13.3747C81.516 13.2766 82.9316 13.709 84.0709 14.5915C84.545 15.0374 84.9153 15.5852 85.1546 16.1951C85.3938 16.8049 85.4962 17.4614 85.4541 18.1165V18.6591C84.5823 18.3753 83.6927 18.151 82.7914 17.9879C81.6791 17.8052 80.5532 17.7209 79.4264 17.736C78.2361 17.7262 77.0495 17.8742 75.8968 18.1762C74.8873 18.4329 73.9346 18.8816 73.0892 19.4984C72.3101 20.0792 71.68 20.8422 71.2523 21.7229C70.7932 22.7052 70.567 23.7832 70.592 24.8704V24.9541C70.5668 25.9293 70.7639 26.8972 71.1679 27.782C71.5719 28.6669 72.1718 29.4448 72.9207 30.0548C73.6506 30.6437 74.4845 31.0854 75.3775 31.3561C76.3413 31.6541 77.3439 31.8025 78.3513 31.7963C79.808 31.8404 81.2534 31.5236 82.5627 30.8733C83.6487 30.3141 84.6164 29.5441 85.4114 28.607" fill="#C0C0C0"/>
<path d="M99.6391 17.2538C99.9388 16.4195 100.401 15.6551 100.997 15.0061C101.559 14.4012 102.238 13.9223 102.993 13.6001C103.755 13.2768 104.574 13.1125 105.401 13.1173C106.227 13.1183 107.044 13.2921 107.801 13.6279C108.558 13.9636 109.24 14.4541 109.803 15.0689C110.394 15.7253 110.862 16.4874 111.181 17.3165C111.867 19.2128 111.867 21.2953 111.181 23.1915C110.862 24.0208 110.395 24.7828 109.803 25.4392C108.953 26.3654 107.843 27.0017 106.624 27.2609C105.404 27.5201 104.136 27.3895 102.993 26.887C102.24 26.5525 101.561 26.0672 100.997 25.4601C100.401 24.8111 99.9388 24.0467 99.6391 23.2124C99.2989 22.265 99.1317 21.2625 99.1458 20.254C99.1295 19.2318 99.2966 18.2151 99.6391 17.2538V17.2538ZM100.451 31.0382C101.64 31.5376 102.914 31.7942 104.2 31.7931C105.762 31.8479 107.304 31.4242 108.626 30.5771C109.792 29.7939 110.805 28.7976 111.613 27.6388V31.332H116.649V0.699219H111.613V12.6166C110.779 11.5472 109.777 10.6256 108.647 9.88914C107.31 9.06229 105.763 8.6534 104.2 8.71338C102.907 8.71373 101.627 8.9704 100.431 9.46904C99.2077 9.9743 98.1052 10.7408 97.1983 11.7167C96.2278 12.769 95.4657 14.0013 94.9535 15.3463C94.3659 16.9131 94.0793 18.5799 94.1093 20.2563C94.0791 21.9346 94.3731 23.6025 94.9748 25.1656C95.4987 26.5093 96.2671 27.7406 97.2395 28.7952C98.1414 29.7675 99.2364 30.5337 100.452 31.0429" fill="#C0C0C0"/>
<path d="M126.988 0.953125H121.58V5.77866H126.988V0.953125Z" fill="#C0C0C0"/>
<path d="M126.822 9.17969H121.786V31.3356H126.822V9.17969Z" fill="#C0C0C0"/>
<path d="M135.384 24.6177C135.362 24.0986 135.471 23.5825 135.703 23.1193C135.934 22.6561 136.28 22.2616 136.706 21.974C137.811 21.298 139.091 20.9763 140.379 21.0509C141.3 21.0471 142.219 21.1314 143.124 21.3028C143.892 21.4424 144.645 21.6531 145.375 21.9321V23.3172C145.383 23.9797 145.234 24.6345 144.941 25.2261C144.649 25.8045 144.232 26.3081 143.721 26.6987C143.167 27.1203 142.546 27.4398 141.884 27.6428C141.141 27.8728 140.369 27.986 139.592 27.9784C138.534 28.0146 137.49 27.7217 136.599 27.139C136.206 26.8759 135.886 26.513 135.672 26.0861C135.458 25.6592 135.357 25.183 135.379 24.7045L135.384 24.6177ZM135.219 31.353C136.183 31.6509 137.186 31.7993 138.193 31.7932C139.65 31.8373 141.095 31.5205 142.405 30.8701C143.491 30.3109 144.458 29.541 145.253 28.6038V31.3305H150.21V18.1971C150.21 15.2317 149.425 12.9308 147.856 11.2944C146.287 9.65797 143.878 8.83951 140.632 8.83899C139.09 8.81063 137.55 8.97991 136.05 9.3428C134.775 9.68137 133.532 10.1305 132.333 10.6852L133.696 14.7558C134.648 14.349 135.627 14.0123 136.627 13.7482C137.708 13.4823 138.817 13.3555 139.929 13.3708C141.359 13.2727 142.774 13.7054 143.914 14.5884C144.388 15.0342 144.758 15.5819 144.997 16.1916C145.236 16.8013 145.339 17.4576 145.297 18.1126V18.6552C144.425 18.3709 143.535 18.1466 142.634 17.984C141.522 17.801 140.396 17.7167 139.269 17.732C138.079 17.7223 136.892 17.8703 135.739 18.1723C134.73 18.4291 133.777 18.8778 132.932 19.4946C132.153 20.0751 131.522 20.8378 131.094 21.7182C130.635 22.7005 130.409 23.7785 130.434 24.8657V24.9494C130.41 25.9245 130.608 26.8921 131.012 27.7765C131.417 28.661 132.017 29.4383 132.766 30.0478C133.496 30.6366 134.33 31.0782 135.223 31.3491" fill="#C0C0C0"/>
<path d="M157.116 1.11328C155.548 1.11328 154.044 1.7465 152.935 2.87363C151.826 4.00077 151.203 5.52948 151.203 7.12348C151.203 8.71749 151.826 10.2462 152.935 11.3733C154.044 12.5005 155.548 13.1337 157.116 13.1337C157.14 13.1337 157.164 13.1337 157.187 13.1337C157.213 13.1319 157.237 13.1205 157.254 13.1017C157.271 13.0828 157.281 13.058 157.281 13.0322V12.1455C157.281 12.1314 157.278 12.1174 157.273 12.1045C157.267 12.0916 157.259 12.08 157.249 12.0705C157.238 12.0609 157.226 12.0537 157.213 12.0491C157.2 12.0445 157.186 12.0428 157.172 12.044C157.153 12.044 157.135 12.044 157.116 12.044C156.033 12.0451 154.981 11.6774 154.127 10.9995C153.274 10.3216 152.669 9.3726 152.409 8.30412C152.148 7.23565 152.248 6.10929 152.691 5.10491C153.134 4.10054 153.895 3.27606 154.854 2.76317C155.812 2.25028 156.912 2.07855 157.977 2.2754C159.043 2.47225 160.012 3.02633 160.732 3.84915C161.451 4.67197 161.879 5.71608 161.946 6.81474C162.013 7.9134 161.716 9.00322 161.102 9.91021L160.815 10.3334L157.502 4.44294C157.487 4.41646 157.466 4.39425 157.44 4.37841C157.414 4.36257 157.385 4.35361 157.355 4.35237C157.325 4.35113 157.295 4.35767 157.269 4.37134C157.242 4.38501 157.219 4.40539 157.202 4.43054L154.475 8.46939C154.449 8.5088 154.439 8.55723 154.447 8.60414C154.456 8.65104 154.482 8.69261 154.521 8.71973L155.196 9.19019C155.215 9.2036 155.237 9.21303 155.259 9.21796C155.282 9.22288 155.306 9.2232 155.328 9.21888C155.351 9.21456 155.373 9.20569 155.393 9.19279C155.412 9.17989 155.429 9.1632 155.442 9.14369L157.272 6.43485L159.483 10.3698L160.409 11.9362C160.419 11.9523 160.431 11.9662 160.446 11.977C160.461 11.9879 160.478 11.9954 160.497 11.9991C160.515 12.0028 160.533 12.0027 160.551 11.9987C160.569 11.9946 160.586 11.9868 160.601 11.9758C161.609 11.2287 162.358 10.1767 162.741 8.97059C163.125 7.76444 163.123 6.4659 162.736 5.26086C162.349 4.05582 161.597 3.00606 160.588 2.26189C159.578 1.51773 158.363 1.1173 157.116 1.11792V1.11328Z" fill="#C0C0C0"/>
<path d="M17.5822 43.7516V45.6714C17.2631 45.6165 16.936 45.636 16.6255 45.7285C16.315 45.821 16.0293 45.984 15.7898 46.2052C15.5504 46.4264 15.3635 46.7 15.2434 47.0054C15.1233 47.3108 15.073 47.6399 15.0964 47.9679V52.1021H13.3533V43.8996H15.0964V45.2777C15.3076 44.7955 15.6591 44.3908 16.1035 44.1179C16.548 43.8451 17.064 43.7172 17.5822 43.7516V43.7516Z" fill="#C0C0C0"/>
<path d="M17.8728 48.0113C17.8617 47.4402 17.9645 46.8727 18.1749 46.3431C18.3853 45.8134 18.699 45.3326 19.0971 44.9294C19.4952 44.5263 19.9695 44.2092 20.4914 43.9974C21.0132 43.7855 21.5719 43.6831 22.1337 43.6965C22.8671 43.6785 23.5912 43.8666 24.2262 44.2401C24.8612 44.6136 25.3825 45.1579 25.7327 45.8132L24.2314 46.6991C24.0364 46.3036 23.733 45.9739 23.3578 45.7498C22.9826 45.5256 22.5517 45.4165 22.1169 45.4357C21.4449 45.4357 20.8004 45.7071 20.3252 46.1901C19.85 46.6731 19.5831 47.3282 19.5831 48.0113C19.5831 48.6943 19.85 49.3494 20.3252 49.8325C20.8004 50.3155 21.4449 50.5868 22.1169 50.5868C22.5546 50.5985 22.9869 50.4866 23.3658 50.2636C23.7448 50.0406 24.0554 49.7151 24.2634 49.3234L25.7648 50.1931C25.408 50.8512 24.8811 51.3977 24.241 51.7736C23.601 52.1495 22.872 52.3406 22.1329 52.326C21.5715 52.3379 21.0136 52.2345 20.4925 52.0221C19.9713 51.8097 19.4977 51.4925 19.1 51.0897C18.7022 50.6869 18.3886 50.2066 18.1777 49.6776C17.9668 49.1487 17.8631 48.5819 17.8728 48.0113V48.0113Z" fill="#C0C0C0"/>
<path d="M33.9807 47.0696V52.1075H32.2376V47.251C32.2665 46.9997 32.2402 46.7449 32.1605 46.5051C32.0809 46.2654 31.9498 46.0466 31.7769 45.8645C31.6039 45.6825 31.3933 45.5418 31.1604 45.4525C30.9274 45.3632 30.6778 45.3276 30.4297 45.3482C29.2859 45.3482 28.3801 46.0373 28.3801 47.7106V52.1075H26.637V40.625H28.3801V44.9561C28.6502 44.5397 29.024 44.2035 29.4634 43.9816C29.9028 43.7596 30.3923 43.66 30.8819 43.6927C32.6898 43.6896 33.9807 44.9367 33.9807 47.0696Z" fill="#C0C0C0"/>
<path d="M35.0781 43.9068H36.8212V52.1101H35.0781V43.9068ZM35.0781 40.8477H36.8212V42.5017H35.0781V40.8477Z" fill="#C0C0C0"/>
<path d="M40.9531 45.6134V49.5507C40.9531 50.6009 41.631 50.5838 42.9547 50.5187V52.11C40.2752 52.4386 39.21 51.6836 39.21 49.5522V45.6149H37.7253V43.9098H39.213V42.138L40.9561 41.6133V43.9098H42.9577V45.6149L40.9531 45.6134Z" fill="#C0C0C0"/>
<path d="M47.7806 50.7012C48.1831 50.7177 48.5834 50.6336 48.9464 50.4563C49.3095 50.2791 49.6242 50.014 49.863 49.6844L51.2996 50.5369C50.9076 51.1149 50.3776 51.5822 49.7593 51.8949C49.1409 52.2077 48.4546 52.3557 47.7646 52.325C47.1995 52.3464 46.6358 52.2529 46.1067 52.0498C45.5776 51.8468 45.0937 51.5384 44.6835 51.1427C44.2732 50.747 43.9449 50.272 43.7177 49.7456C43.4905 49.2192 43.3691 48.652 43.3605 48.0772C43.3519 47.5024 43.4563 46.9316 43.6677 46.3984C43.8791 45.8652 44.1931 45.3804 44.5913 44.9722C44.9896 44.564 45.464 44.2408 45.9868 44.0216C46.5096 43.8023 47.0702 43.6914 47.6357 43.6954C48.185 43.6977 48.7281 43.813 49.2324 44.0342C49.7367 44.2554 50.1918 44.578 50.5702 44.9826C50.9487 45.3872 51.2427 45.8655 51.4346 46.3885C51.6265 46.9116 51.7124 47.4688 51.687 48.0265C51.6821 48.2739 51.6605 48.5207 51.6222 48.7651H45.198C45.3226 49.3522 45.6538 49.8729 46.1293 50.2294C46.6048 50.5859 47.192 50.7536 47.7806 50.7012V50.7012ZM49.9271 47.3212C49.8614 46.7521 49.5876 46.229 49.16 45.8557C48.7324 45.4824 48.1823 45.2861 47.619 45.306C47.039 45.2752 46.4684 45.4643 46.0176 45.8365C45.5669 46.2088 45.268 46.7378 45.1789 47.3212H49.9271Z" fill="#C0C0C0"/>
<path d="M52.3322 48.0113C52.3212 47.4402 52.4239 46.8727 52.6343 46.3431C52.8447 45.8134 53.1584 45.3326 53.5566 44.9294C53.9547 44.5263 54.4289 44.2092 54.9508 43.9973C55.4727 43.7855 56.0313 43.6831 56.5931 43.6965C57.3265 43.6786 58.0506 43.8668 58.6856 44.2402C59.3206 44.6137 59.8419 45.158 60.1922 45.8132L58.6908 46.6991C58.4958 46.3036 58.1925 45.9739 57.8173 45.7497C57.4421 45.5256 57.0111 45.4165 56.5764 45.4357C55.9043 45.4357 55.2598 45.7071 54.7847 46.1901C54.3095 46.6731 54.0425 47.3282 54.0425 48.0113C54.0425 48.6943 54.3095 49.3494 54.7847 49.8324C55.2598 50.3154 55.9043 50.5868 56.5764 50.5868C57.0141 50.5985 57.4464 50.4866 57.8253 50.2636C58.2042 50.0406 58.5149 49.7151 58.7228 49.3234L60.2242 50.1931C59.8674 50.8511 59.3405 51.3976 58.7004 51.7735C58.0604 52.1494 57.3314 52.3405 56.5924 52.326C56.031 52.3379 55.4731 52.2345 54.9519 52.0221C54.4308 51.8097 53.9571 51.4925 53.5594 51.0897C53.1617 50.6869 52.848 50.2066 52.6371 49.6776C52.4262 49.1487 52.3226 48.5819 52.3322 48.0113V48.0113Z" fill="#C0C0C0"/>
<path d="M63.9848 45.6134V49.5507C63.9848 50.6009 64.6627 50.5838 65.9864 50.5187V52.11C63.3069 52.4386 62.2417 51.6836 62.2417 49.5522V45.6149H60.7571V43.9098H62.2417V42.138L63.9848 41.6133V43.9098H65.9864V45.6149L63.9848 45.6134Z" fill="#C0C0C0"/>
<path d="M73.186 49.7942C73.186 51.435 71.7815 52.3209 70.0384 52.3209C69.3633 52.3744 68.688 52.2198 68.1007 51.8774C67.5133 51.5349 67.0412 51.0204 66.7458 50.4011L68.2472 49.5152C68.379 49.8833 68.6252 50.1977 68.9485 50.4108C69.2719 50.624 69.6547 50.7242 70.0391 50.6964C70.8138 50.6964 71.4117 50.4336 71.4117 49.7779C71.4117 48.3177 67.0699 49.1377 67.0699 46.201C67.0699 44.6587 68.3769 43.6906 70.0239 43.6906C70.6284 43.664 71.2283 43.8095 71.7559 44.1108C72.2834 44.412 72.7178 44.8571 73.0099 45.3957L71.5413 46.2328C71.4104 45.9398 71.1955 45.6937 70.9248 45.5268C70.654 45.3599 70.3401 45.2799 70.0239 45.2973C69.3941 45.2973 68.8458 45.5763 68.8458 46.1669C68.8443 47.6581 73.186 46.7591 73.186 49.7942Z" fill="#C0C0C0"/>
<path d="M77.1725 48.0036C77.1693 47.1463 77.4165 46.3073 77.8828 45.5929C78.349 44.8786 79.0134 44.3209 79.7917 43.9906C80.57 43.6603 81.4272 43.5722 82.2548 43.7375C83.0824 43.9028 83.8431 44.314 84.4406 44.919C85.0381 45.5241 85.4455 46.2958 85.6112 47.1363C85.7769 47.9769 85.6935 48.8486 85.3715 49.6409C85.0495 50.4333 84.5033 51.1106 83.8023 51.5873C83.1013 52.0639 82.2768 52.3183 81.4334 52.3183C80.8734 52.3248 80.3178 52.2178 79.799 52.0035C79.2802 51.7891 78.8086 51.4718 78.4119 51.0701C78.0152 50.6683 77.7012 50.1902 77.4884 49.6637C77.2756 49.1371 77.1682 48.5728 77.1725 48.0036V48.0036ZM83.9512 48.0036C83.9444 47.4992 83.7911 47.0082 83.5105 46.5922C83.23 46.1762 82.8347 45.8538 82.3743 45.6655C81.914 45.4773 81.4092 45.4316 80.9233 45.5342C80.4375 45.6368 79.9923 45.8831 79.6439 46.2422C79.2954 46.6012 79.0591 47.057 78.9647 47.5522C78.8704 48.0473 78.9222 48.5598 79.1136 49.0251C79.305 49.4905 79.6275 49.8878 80.0406 50.1674C80.4536 50.4469 80.9387 50.5961 81.4349 50.5962C81.7697 50.6014 82.1021 50.5377 82.412 50.4088C82.7219 50.28 83.0029 50.0886 83.238 49.8463C83.4732 49.604 83.6576 49.3159 83.7801 48.9992C83.9027 48.6824 83.9609 48.3438 83.9512 48.0036V48.0036Z" fill="#C0C0C0"/>
<path d="M88.9389 43.7418V43.9061H90.8452V45.6113H88.9389V52.107H87.1958V45.6105H85.9689V43.9054H87.1958V43.741C87.1958 41.5259 88.4226 40.2463 90.8436 40.4083V42.1134C89.6167 42.0034 88.9389 42.4793 88.9389 43.7418Z" fill="#C0C0C0"/>
<path d="M94.3137 46.3679C94.2987 45.5775 94.4415 44.7922 94.7337 44.0595C95.0258 43.3268 95.4612 42.6619 96.0134 42.1052C96.5657 41.5484 97.2232 41.1114 97.9464 40.8204C98.6696 40.5294 99.4434 40.3906 100.221 40.4124C101.196 40.3966 102.158 40.6414 103.01 41.1222C103.863 41.603 104.576 42.303 105.079 43.1522L103.465 44.104C103.14 43.5249 102.667 43.0464 102.095 42.7199C101.524 42.3933 100.875 42.2309 100.22 42.25C99.1456 42.25 98.1152 42.6839 97.3555 43.4561C96.5957 44.2284 96.1689 45.2758 96.1689 46.3679C96.1689 47.46 96.5957 48.5075 97.3555 49.2797C98.1152 50.052 99.1456 50.4858 100.22 50.4858C100.876 50.507 101.525 50.3455 102.097 50.0187C102.669 49.6919 103.142 49.2123 103.465 48.6319L105.079 49.5666C104.58 50.4206 103.868 51.1254 103.015 51.6094C102.162 52.0934 101.198 52.3395 100.221 52.3227C99.4435 52.3445 98.6698 52.2056 97.9466 51.9147C97.2235 51.6238 96.5659 51.1868 96.0137 50.6301C95.4615 50.0735 95.0262 49.4088 94.734 48.6762C94.4418 47.9435 94.2988 47.1583 94.3137 46.3679V46.3679Z" fill="#C0C0C0"/>
<path d="M113.359 47.0696V52.1075H111.616V47.251C111.645 46.9997 111.619 46.7449 111.539 46.5051C111.459 46.2654 111.328 46.0466 111.155 45.8645C110.982 45.6825 110.772 45.5418 110.539 45.4525C110.306 45.3632 110.056 45.3276 109.808 45.3482C108.664 45.3482 107.758 46.0373 107.758 47.7106V52.1075H106.016V40.625H107.759V44.9561C108.029 44.5397 108.403 44.2035 108.842 43.9816C109.282 43.7596 109.771 43.66 110.261 43.6927C112.068 43.6896 113.359 44.9367 113.359 47.0696Z" fill="#C0C0C0"/>
<path d="M122.802 43.9024V52.1057H121.059V50.9245C120.738 51.3757 120.313 51.7392 119.821 51.9826C119.328 52.2261 118.785 52.3418 118.237 52.3196C117.151 52.2604 116.128 51.7799 115.38 50.9773C114.631 50.1746 114.214 49.1108 114.214 48.0048C114.214 46.8989 114.631 45.8351 115.38 45.0324C116.128 44.2297 117.151 43.7493 118.237 43.6901C118.783 43.6685 119.325 43.7828 119.817 44.023C120.308 44.2632 120.735 44.622 121.059 45.0681V43.9056L122.802 43.9024ZM121.059 48.004C121.052 47.4927 120.897 46.9947 120.613 46.5726C120.329 46.1506 119.929 45.8233 119.462 45.6321C118.995 45.4409 118.484 45.3942 117.991 45.4979C117.498 45.6017 117.047 45.8512 116.693 46.2151C116.34 46.579 116.1 47.0411 116.004 47.5431C115.909 48.0452 115.961 48.5648 116.155 49.0366C116.349 49.5085 116.676 49.9114 117.095 50.1948C117.514 50.4782 118.006 50.6293 118.509 50.6292C118.849 50.6371 119.186 50.5744 119.502 50.4448C119.817 50.3153 120.102 50.1216 120.341 49.8758C120.58 49.63 120.767 49.3371 120.89 49.0153C121.014 48.6934 121.071 48.3493 121.059 48.004V48.004Z" fill="#C0C0C0"/>
<path d="M131.614 47.0736V52.1115H129.871V47.2558C129.9 47.0043 129.874 46.7495 129.794 46.5097C129.715 46.2698 129.584 46.0509 129.411 45.8688C129.238 45.6867 129.027 45.5459 128.794 45.4565C128.561 45.3672 128.311 45.3316 128.063 45.3522C126.919 45.3522 126.014 46.0413 126.014 47.7146V52.1115H124.271V43.9067H126.014V44.9569C126.284 44.5406 126.658 44.2044 127.097 43.9825C127.536 43.7606 128.026 43.6609 128.515 43.6936C130.323 43.6936 131.614 44.9407 131.614 47.0736Z" fill="#C0C0C0"/>
<path d="M141.057 43.9056V51.7337C141.057 54.3751 139.023 55.609 136.909 55.609C135.133 55.609 133.761 54.9363 133.083 53.6241L134.584 52.7382C134.94 53.4435 135.537 54.0016 136.941 54.0016C138.443 54.0016 139.346 53.1645 139.346 51.7376V50.737C139.031 51.1921 138.609 51.5601 138.119 51.8076C137.628 52.0551 137.085 52.1744 136.538 52.1546C135.453 52.1247 134.422 51.6657 133.666 50.8752C132.909 50.0847 132.485 49.0251 132.485 47.922C132.485 46.8188 132.909 45.7593 133.666 44.9688C134.422 44.1782 135.453 43.7192 136.538 43.6894C137.086 43.6707 137.63 43.7916 138.12 44.0409C138.611 44.2902 139.032 44.6601 139.346 45.117V43.9033L141.057 43.9056ZM139.345 47.9251C139.352 47.4077 139.207 46.9 138.929 46.4666C138.651 46.0332 138.252 45.6937 137.784 45.4911C137.315 45.2886 136.798 45.2322 136.298 45.3291C135.798 45.426 135.338 45.6719 134.976 46.0355C134.613 46.399 134.366 46.8639 134.264 47.3709C134.162 47.8779 134.211 48.4042 134.405 48.8828C134.598 49.3615 134.927 49.7708 135.35 50.0589C135.773 50.347 136.271 50.5007 136.78 50.5006C137.117 50.5116 137.453 50.4528 137.767 50.3276C138.081 50.2025 138.367 50.0138 138.607 49.7728C138.847 49.5319 139.036 49.2438 139.163 48.9261C139.29 48.6085 139.352 48.2679 139.345 47.9251Z" fill="#C0C0C0"/>
<path d="M146.48 50.7012C146.883 50.7176 147.283 50.6335 147.646 50.4563C148.009 50.279 148.324 50.014 148.563 49.6844L149.999 50.5369C149.607 51.1149 149.077 51.5823 148.459 51.895C147.841 52.2078 147.154 52.3557 146.464 52.325C145.899 52.3464 145.335 52.2529 144.806 52.0498C144.277 51.8468 143.793 51.5384 143.383 51.1427C142.973 50.747 142.644 50.272 142.417 49.7456C142.19 49.2192 142.069 48.652 142.06 48.0772C142.051 47.5024 142.156 46.9316 142.367 46.3984C142.579 45.8652 142.893 45.3804 143.291 44.9722C143.689 44.564 144.164 44.2408 144.686 44.0216C145.209 43.8023 145.77 43.6914 146.335 43.6954C146.885 43.6977 147.428 43.813 147.932 44.0342C148.436 44.2554 148.891 44.578 149.27 44.9826C149.648 45.3872 149.942 45.8655 150.134 46.3885C150.326 46.9116 150.412 47.4688 150.387 48.0265C150.382 48.2739 150.36 48.5207 150.322 48.7651H143.898C144.022 49.3522 144.353 49.8729 144.829 50.2294C145.304 50.5859 145.892 50.7536 146.48 50.7012V50.7012ZM148.627 47.3212C148.561 46.7521 148.287 46.229 147.86 45.8557C147.432 45.4824 146.882 45.2861 146.319 45.306C145.739 45.2752 145.168 45.4643 144.717 45.8365C144.266 46.2088 143.968 46.7378 143.878 47.3212H148.627Z" fill="#C0C0C0"/>
<path d="M6.75599 39.6562L5.84097 39.9662L0.287598 52.1037H2.3868L3.57097 49.2786H3.5664L6.3366 43.2843L9.12283 49.2786H9.11673L10.2841 52.1037H12.4489L6.75599 39.6562Z" fill="#C0C0C0"/>
</svg>
