<svg width="130" height="70" viewBox="0 0 130 70" fill="none" xmlns="http://www.w3.org/2000/svg">
<g clip-path="url(#clip0_2754_19252)">
<path fill-rule="evenodd" clip-rule="evenodd" d="M124.586 60.3672H123.851V69.2038H124.586V65.875L127.823 69.2038H128.755L125.395 65.7162L128.51 63.0598H127.566L124.586 65.5693V60.3672ZM117.856 65.6664C117.856 64.5651 118.408 63.5491 119.621 63.5491C120.626 63.5491 121.239 64.1741 121.239 65.2387V69.2038H121.975V65.3613C121.975 64.6522 121.816 62.8773 119.805 62.8773C119.008 62.8773 118.31 63.231 117.881 63.9899L117.856 63.9656L117.819 63.0598H117.059C117.084 63.4762 117.12 63.9656 117.12 64.4425V69.2038H117.856V65.6664ZM114.485 65.4354C113.59 65.4828 112.523 65.3613 111.702 65.7162C110.966 66.0219 110.464 66.6581 110.464 67.4905C110.464 68.6902 111.371 69.388 112.511 69.388C113.344 69.388 114.166 68.8987 114.436 68.3833L114.472 68.2992H114.497L114.522 69.2038H115.281C115.257 68.7873 115.208 68.2992 115.22 67.8211V64.9075C115.245 63.5005 114.399 62.8773 113.038 62.8773C111.861 62.8773 110.917 63.3536 110.733 64.6149H111.518C111.616 63.7831 112.254 63.5491 113.026 63.5491C113.896 63.5491 114.411 63.8672 114.485 64.872V65.4354ZM111.261 67.4905C111.261 65.9478 113.443 66.1445 114.485 66.1078C114.559 67.3933 114.252 68.7144 112.646 68.7144C111.898 68.7144 111.261 68.3234 111.261 67.4905ZM104.42 68.2992L104.445 68.2494C104.947 68.984 105.695 69.388 106.59 69.388C108.38 69.388 109.078 67.6499 109.078 66.1078C109.078 64.5165 108.38 62.8773 106.553 62.8773C105.732 62.8773 104.874 63.2683 104.445 63.9899L104.42 63.9656V60.3672H103.684V67.8211C103.684 68.2992 103.648 68.7873 103.623 69.2038H104.383L104.42 68.2992ZM106.406 63.5491C107.803 63.5491 108.282 64.872 108.282 66.0462C108.282 67.1848 107.926 68.7144 106.516 68.7144C104.91 68.7144 104.42 67.4046 104.42 66.0106C104.42 64.7618 104.972 63.5491 106.406 63.5491ZM100.963 65.4354C100.068 65.4828 99.0009 65.3613 98.1796 65.7162C97.4444 66.0219 96.9417 66.6581 96.9417 67.4905C96.9417 68.6902 97.8485 69.388 98.9891 69.388C99.8223 69.388 100.644 68.8987 100.914 68.3833L100.95 68.2992H100.975L101 69.2038H101.759C101.735 68.7873 101.685 68.2992 101.698 67.8211V64.9075C101.722 63.5005 100.877 62.8773 99.516 62.8773C98.3393 62.8773 97.3951 63.3536 97.2111 64.6149H97.9957C98.0942 63.7831 98.7315 63.5491 99.5036 63.5491C100.374 63.5491 100.889 63.8672 100.963 64.872V65.4354ZM97.7387 67.4905C97.7387 65.9478 99.9208 66.1445 100.963 66.1078C101.036 67.3933 100.73 68.7144 99.1238 68.7144C98.3761 68.7144 97.7387 68.3234 97.7387 67.4905ZM93.3989 67.5645C93.3989 68.3963 93.3128 69.388 94.87 69.388C95.1151 69.388 95.3845 69.3394 95.6178 69.2766V68.6404C95.4213 68.702 95.2006 68.7144 94.9804 68.7144C94.416 68.7144 94.1223 68.4087 94.1342 67.8454V63.7333H95.5317V63.0598H94.1342V61.4318L93.3989 61.7511V63.0598H92.1729V63.7333H93.3989V67.5645ZM90.1374 65.4354C89.243 65.4828 88.176 65.3613 87.3547 65.7162C86.6195 66.0219 86.1168 66.6581 86.1168 67.4905C86.1168 68.6902 87.0236 69.388 88.1642 69.388C88.9974 69.388 89.8187 68.8987 90.0887 68.3833L90.1255 68.2992H90.1498L90.1747 69.2038H90.9343C90.91 68.7873 90.8608 68.2992 90.8732 67.8211V64.9075C90.8975 63.5005 90.0519 62.8773 88.6911 62.8773C87.5144 62.8773 86.5702 63.3536 86.3862 64.6149H87.1702C87.2687 63.7831 87.9066 63.5491 88.6781 63.5491C89.5493 63.5491 90.0644 63.8672 90.1374 64.872V65.4354ZM86.9132 67.4905C86.9132 65.9478 89.0959 66.1445 90.1374 66.1078C90.2109 67.3933 89.9047 68.7144 88.2989 68.7144C87.5512 68.7144 86.9132 68.3234 86.9132 67.4905ZM77.7434 60.3672V69.2038H80.1344C83.0398 69.2038 84.6949 67.7115 84.6949 64.7861C84.6949 61.8613 83.0398 60.3672 80.1344 60.3672H77.7434ZM78.5398 68.4692V61.1018H79.7908C82.304 61.0289 83.8368 62.1794 83.8368 64.7861C83.8368 67.0136 82.8191 68.4692 80.3302 68.4692H78.5398ZM69.9593 67.5645C69.9593 68.3963 69.8732 69.388 71.4304 69.388C71.6755 69.388 71.9449 69.3394 72.1781 69.2766V68.6404C71.9817 68.702 71.7609 68.7144 71.5408 68.7144C70.9764 68.7144 70.6821 68.4087 70.6945 67.8454V63.7333H72.0921V63.0598H70.6945V61.4318L69.9593 61.7511V63.0598H68.7332V63.7333H69.9593V67.5645ZM63.0813 64.5894C63.0813 65.728 64.0623 66.0106 65.0308 66.2417C66.0117 66.4626 66.9802 66.6096 66.9802 67.4905C66.9802 68.3465 66.1589 68.7144 65.3738 68.7144C64.5406 68.7144 63.7311 68.4449 63.67 67.5272H62.873C62.8979 68.8856 64.1234 69.388 65.1904 69.388C66.4894 69.388 67.7766 68.763 67.7766 67.3803C67.7766 66.7198 67.3725 66.1688 66.7351 65.9478C65.0676 65.3613 63.8783 65.4466 63.8783 64.5408C63.8783 63.8187 64.5774 63.5491 65.264 63.5491C66.0236 63.5491 66.7102 63.8074 66.7838 64.5781H67.5808C67.4829 63.2807 66.5019 62.8773 65.3376 62.8773C64.2587 62.8773 63.0813 63.3181 63.0813 64.5894ZM60.1147 65.5082C60.1396 64.3329 60.7159 63.5491 61.8066 63.5491C61.9538 63.5491 62.1134 63.5864 62.26 63.5989V62.8885C62.0149 62.8773 61.7698 62.8643 61.5247 62.8773C60.9117 62.9016 60.3598 63.3423 60.1396 63.9656H60.1147L60.0779 63.0598H59.3177C59.3427 63.4762 59.3913 63.9656 59.3795 64.4425V69.2038H60.1147V65.5082ZM56.5968 61.286H57.4549V60.3672H56.5968V61.286ZM56.6579 69.2038H57.3932V63.0598H56.6579V69.2038ZM50.9817 69.2038V64.9573H55.0396V64.2227H50.9817V61.1018H55.1868V60.3672H50.1847V69.2038H50.9817Z" fill="#C0C0C0"/>
<path fill-rule="evenodd" clip-rule="evenodd" d="M64.3418 44.5157C64.3418 46.8048 64.1335 49.1627 63.994 51.4512H74.4148C74.5536 49.7877 74.6925 48.1917 74.6925 46.527H74.8308C77.1238 50.6183 81.0144 52.4915 85.5299 52.4915C95.7418 52.4915 100.536 42.9896 100.536 34.044C100.536 24.6819 95.0474 15.5971 84.2101 15.5971C80.5978 15.5971 76.8461 17.747 74.9008 20.6594H74.762V1.38014H64.3418V44.5157ZM74.762 34.044C74.762 29.259 76.6378 22.532 82.2648 22.532C88.9338 22.532 89.7676 28.7045 89.7676 34.044C89.7676 39.3841 88.9338 45.556 82.2648 45.556C76.6378 45.556 74.762 38.8302 74.762 34.044ZM49.1284 20.6594H48.9895C47.0442 17.747 43.2931 15.5971 39.6803 15.5971C28.8429 15.5971 23.3548 24.6819 23.3548 34.044C23.3548 42.9896 28.1486 52.4915 38.3605 52.4915C42.8759 52.4915 46.7665 50.6183 49.059 46.527H49.1978C49.1978 48.1917 49.3367 49.7877 49.4755 51.4512H59.8963C59.7575 49.1627 59.5486 46.8048 59.5486 44.5157V1.38014H49.1284V20.6594ZM34.1227 34.044C34.1227 28.7045 34.9565 22.532 41.6255 22.532C47.2525 22.532 49.1284 29.259 49.1284 34.044C49.1284 38.8302 47.2525 45.556 41.6255 45.556C34.9565 45.556 34.1227 39.3841 34.1227 34.044ZM23.842 0.825039C21.9661 0.547784 20.0208 0.339844 18.1456 0.339844C6.82159 0.339844 5.91838 6.71966 6.1967 16.6374H0.986313V23.5723H6.1967V51.4512H16.6169V23.5723H22.9388V16.6374H16.6169C16.3392 9.77123 16.478 6.4424 23.842 7.27476V0.825039Z" fill="#C0C0C0"/>
<path fill-rule="evenodd" clip-rule="evenodd" d="M125.94 37.2677C127.723 37.2677 129.169 35.8233 129.169 34.0437C129.169 32.2635 127.723 30.8203 125.94 30.8203C124.156 30.8203 122.711 32.2635 122.711 34.0437C122.711 35.8233 124.156 37.2677 125.94 37.2677Z" fill="#C0C0C0"/>
<path fill-rule="evenodd" clip-rule="evenodd" d="M117.754 44.7133C119.225 44.7133 120.418 43.5231 120.418 42.0533C120.418 40.5847 119.225 39.3945 117.754 39.3945C116.282 39.3945 115.09 40.5847 115.09 42.0533C115.09 43.5231 116.282 44.7133 117.754 44.7133Z" fill="#C0C0C0"/>
<path fill-rule="evenodd" clip-rule="evenodd" d="M117.754 36.7055C119.225 36.7055 120.418 35.5147 120.418 34.0461C120.418 32.5775 119.225 31.3867 117.754 31.3867C116.282 31.3867 115.09 32.5775 115.09 34.0461C115.09 35.5147 116.282 36.7055 117.754 36.7055Z" fill="#C0C0C0"/>
<path fill-rule="evenodd" clip-rule="evenodd" d="M110.599 42.9545C111.812 42.9545 112.796 41.9722 112.796 40.7607C112.796 39.5492 111.812 38.5664 110.599 38.5664C109.384 38.5664 108.4 39.5492 108.4 40.7607C108.4 41.9722 109.384 42.9545 110.599 42.9545Z" fill="#C0C0C0"/>
<path fill-rule="evenodd" clip-rule="evenodd" d="M110.599 36.2396C111.812 36.2396 112.796 35.2574 112.796 34.0453C112.796 32.8338 111.812 31.8516 110.599 31.8516C109.384 31.8516 108.4 32.8338 108.4 34.0453C108.4 35.2574 109.384 36.2396 110.599 36.2396Z" fill="#C0C0C0"/>
<path fill-rule="evenodd" clip-rule="evenodd" d="M104.294 41.4328C105.296 41.4328 106.107 40.623 106.107 39.6235C106.107 38.6235 105.296 37.8125 104.294 37.8125C103.293 37.8125 102.481 38.6235 102.481 39.6235C102.481 40.623 103.293 41.4328 104.294 41.4328Z" fill="#C0C0C0"/>
<path fill-rule="evenodd" clip-rule="evenodd" d="M104.294 35.8541C105.296 35.8541 106.107 35.0442 106.107 34.0442C106.107 33.0448 105.296 32.2344 104.294 32.2344C103.293 32.2344 102.481 33.0448 102.481 34.0442C102.481 35.0442 103.293 35.8541 104.294 35.8541Z" fill="#C0C0C0"/>
<path fill-rule="evenodd" clip-rule="evenodd" d="M86.061 31.2253C86.8871 31.2253 87.5571 30.5564 87.5571 29.7318C87.5571 28.9071 86.8871 28.2383 86.061 28.2383C85.2349 28.2383 84.5649 28.9071 84.5649 29.7318C84.5649 30.5564 85.2349 31.2253 86.061 31.2253Z" fill="#C0C0C0"/>
<path fill-rule="evenodd" clip-rule="evenodd" d="M86.061 39.8536C86.8871 39.8536 87.5571 39.1848 87.5571 38.3601C87.5571 37.5349 86.8871 36.8672 86.061 36.8672C85.2349 36.8672 84.5649 37.5349 84.5649 38.3601C84.5649 39.1848 85.2349 39.8536 86.061 39.8536Z" fill="#C0C0C0"/>
<path fill-rule="evenodd" clip-rule="evenodd" d="M86.061 35.5411C86.8871 35.5411 87.5571 34.8728 87.5571 34.0482C87.5571 33.2235 86.8871 32.5547 86.061 32.5547C85.2349 32.5547 84.5649 33.2235 84.5649 34.0482C84.5649 34.8728 85.2349 35.5411 86.061 35.5411Z" fill="#C0C0C0"/>
<path fill-rule="evenodd" clip-rule="evenodd" d="M81.2815 35.5411C82.1075 35.5411 82.7775 34.8728 82.7775 34.0482C82.7775 33.2235 82.1075 32.5547 81.2815 32.5547C80.4554 32.5547 79.7854 33.2235 79.7854 34.0482C79.7854 34.8728 80.4554 35.5411 81.2815 35.5411Z" fill="#C0C0C0"/>
<path fill-rule="evenodd" clip-rule="evenodd" d="M81.2815 31.2253C82.1075 31.2253 82.7775 30.5564 82.7775 29.7318C82.7775 28.9071 82.1075 28.2383 81.2815 28.2383C80.4554 28.2383 79.7854 28.9071 79.7854 29.7318C79.7854 30.5564 80.4554 31.2253 81.2815 31.2253Z" fill="#C0C0C0"/>
<path fill-rule="evenodd" clip-rule="evenodd" d="M81.2815 39.8536C82.1075 39.8536 82.7775 39.1848 82.7775 38.3601C82.7775 37.5349 82.1075 36.8672 81.2815 36.8672C80.4554 36.8672 79.7854 37.5349 79.7854 38.3601C79.7854 39.1848 80.4554 39.8536 81.2815 39.8536Z" fill="#C0C0C0"/>
<path fill-rule="evenodd" clip-rule="evenodd" d="M117.754 23.4453C119.225 23.4453 120.418 24.6361 120.418 26.1047C120.418 27.5733 119.225 28.7641 117.754 28.7641C116.282 28.7641 115.09 27.5733 115.09 26.1047C115.09 24.6361 116.282 23.4453 117.754 23.4453Z" fill="#C0C0C0"/>
<path fill-rule="evenodd" clip-rule="evenodd" d="M110.599 25.207C111.812 25.207 112.796 26.1893 112.796 27.4014C112.796 28.6129 111.812 29.5951 110.599 29.5951C109.384 29.5951 108.4 28.6129 108.4 27.4014C108.4 26.1893 109.384 25.207 110.599 25.207Z" fill="#C0C0C0"/>
<path fill-rule="evenodd" clip-rule="evenodd" d="M104.294 26.7227C105.296 26.7227 106.107 27.5331 106.107 28.5331C106.107 29.5325 105.296 30.343 104.294 30.343C103.293 30.343 102.481 29.5325 102.481 28.5331C102.481 27.5331 103.293 26.7227 104.294 26.7227Z" fill="#C0C0C0"/>
</g>
<defs>
<clipPath id="clip0_2754_19252">
<rect width="128.183" height="69.9178" fill="white" transform="translate(0.986328 0.0820312)"/>
</clipPath>
</defs>
</svg>
