<svg width="278" height="57" viewBox="0 0 278 57" fill="none" xmlns="http://www.w3.org/2000/svg">
<path d="M275.681 4.62124V4.5289C275.634 3.8363 275.634 3.00519 275.634 2.08173V1.89703L275.449 1.94321C275.216 1.98938 274.055 1.98938 272.987 1.98938H269.55C268.853 1.98938 268.202 1.98938 267.413 1.94321H267.32C267.181 2.03555 267.134 2.22025 267.134 2.31259C267.134 2.45111 267.181 2.58963 267.273 2.68198L267.645 2.72815C268.574 2.82049 268.621 2.95901 268.621 4.89828V11.5472C268.621 13.4865 268.574 13.625 267.645 13.7173L267.134 13.7635L267.088 13.8097C266.995 13.902 266.948 14.0867 266.995 14.2252C266.995 14.3637 267.088 14.4561 267.181 14.5023H267.273C268.156 14.4561 268.76 14.4561 269.596 14.4561C270.339 14.4561 270.989 14.4561 272.058 14.5023H272.151C272.29 14.4561 272.337 14.2714 272.337 14.1329C272.337 13.9944 272.29 13.8558 272.197 13.7635L271.5 13.6711C270.571 13.5788 270.479 13.4865 270.479 11.501V9.00768C270.479 8.63829 270.479 8.63829 270.943 8.63829H272.197C272.847 8.63829 273.358 8.63829 273.591 8.73064C273.869 8.82298 274.009 8.9615 274.102 9.33089L274.287 10.1158L274.334 10.162C274.52 10.3005 274.891 10.3005 275.031 10.1158L275.077 10.0697V10.0235C275.077 9.83879 275.077 9.56175 275.031 9.33089C275.031 9.00768 274.984 8.59212 274.984 8.26891C274.984 7.89952 274.984 7.48397 275.031 7.16076C275.031 6.88372 275.077 6.60668 275.077 6.42199V6.37582L275.031 6.32964C274.938 6.19112 274.752 6.19112 274.659 6.19112C274.52 6.19112 274.38 6.2373 274.287 6.32964L274.102 7.11458C274.009 7.57631 273.869 7.62249 273.73 7.66866C273.544 7.71483 272.94 7.76101 272.197 7.76101H270.943C270.479 7.76101 270.479 7.76101 270.479 7.39162V3.46692C270.479 2.86667 270.479 2.86667 270.897 2.86667H272.011C272.801 2.86667 273.405 2.86667 273.776 2.95901C274.566 3.14371 274.798 3.69778 274.984 4.62124V4.66741L275.031 4.71359C275.124 4.75976 275.216 4.80593 275.309 4.80593C275.449 4.80593 275.634 4.75976 275.681 4.62124V4.62124ZM263.186 8.22273C263.186 5.08297 261.142 1.71234 256.59 1.71234C252.735 1.71234 249.808 4.57507 249.808 8.40743C249.808 11.5934 252.131 14.8255 256.59 14.8255C260.352 14.8255 263.186 11.9627 263.186 8.22273ZM261.049 8.77681C261.049 12.6092 258.773 13.9482 256.822 13.9482C252.967 13.9482 251.945 10.0697 251.945 7.80718C251.945 3.92865 254.267 2.58963 256.265 2.58963C259.795 2.58963 261.049 5.91409 261.049 8.77681V8.77681ZM245.814 40.313C245.814 48.3009 251.806 55.3654 261.699 55.3654C270.339 55.3654 277.214 48.855 277.214 39.8512C277.214 32.048 272.011 24.6142 261.699 24.6142C252.549 24.6603 245.814 31.4478 245.814 40.313V40.313ZM250.319 38.8816C250.319 29.1391 256.358 25.9993 261.003 25.9993C269.55 25.9993 272.801 33.8949 272.801 41.2364C272.801 49.9631 267.692 53.9802 262.35 53.9802C253.524 54.0264 250.319 45.4843 250.319 38.8816ZM240.425 2.68198C240.518 2.58963 240.565 2.45111 240.565 2.31259C240.565 2.17407 240.472 2.03555 240.379 1.98938L240.332 1.94321H240.286C238.985 2.03555 238.196 2.03555 236.802 1.94321H236.709C236.616 1.98938 236.524 2.08173 236.524 2.22025C236.477 2.35876 236.524 2.54346 236.663 2.6358L236.709 2.68198L237.081 2.72815C237.453 2.77432 237.685 2.86667 237.731 2.91284C237.685 3.18988 237.034 4.39038 236.616 5.12914L236.524 5.26766C236.059 6.14495 235.548 7.06841 234.898 8.17656C234.387 7.29928 233.922 6.32964 233.458 5.40618L232.9 4.29803C232.761 4.02099 232.343 3.09753 232.343 2.95901C232.343 2.91284 232.436 2.86667 232.993 2.77432L233.272 2.72815L233.318 2.68198C233.411 2.58963 233.458 2.40494 233.411 2.22025C233.365 2.08173 233.318 1.98938 233.179 1.94321H233.086C232.622 1.98938 231.971 1.98938 231.089 1.98938C230.206 1.98938 229.556 1.98938 228.952 1.94321H228.859C228.766 1.98938 228.72 2.08173 228.673 2.22025C228.627 2.35876 228.673 2.54346 228.766 2.6358L228.813 2.68198L229.37 2.77432C229.881 2.86667 230.113 2.91284 230.717 4.11334L232.9 8.36125C233.411 9.37706 233.458 9.56175 233.458 10.5776V11.501C233.458 13.4865 233.411 13.625 232.482 13.7173L231.832 13.7635L231.786 13.8097C231.693 13.902 231.646 14.0867 231.693 14.2252C231.739 14.3637 231.786 14.4561 231.879 14.5023H231.971C232.993 14.4561 233.644 14.4561 234.387 14.4561C235.13 14.4561 235.827 14.4561 236.895 14.5023H236.988C237.081 14.4561 237.127 14.3637 237.174 14.2252C237.174 14.0867 237.174 13.9482 237.081 13.8097L237.034 13.7635L236.291 13.7173C235.409 13.6711 235.316 13.5326 235.316 11.501V10.5314C235.316 9.14619 235.362 9.00768 236.152 7.62249L237.313 5.59087C237.406 5.40618 237.499 5.22149 237.638 5.08297C238.382 3.79013 238.892 2.91284 239.682 2.77432L240.425 2.68198V2.68198ZM233.922 25.3067C233.179 25.1221 230.81 24.6603 228.255 24.6603C221.52 24.6603 217.107 26.7381 214.088 29.8779C211.301 32.7868 210.047 36.6191 210.047 40.4053C210.047 44.33 211.487 47.8392 214.181 50.471C217.618 53.934 222.496 55.4115 227.791 55.4115C230.206 55.4115 233.411 54.8575 235.78 54.2572C236.616 54.0264 237.453 53.8417 237.963 53.8417C238.149 53.7031 238.149 53.4261 238.01 53.2876C237.22 52.9644 236.942 51.9024 236.942 50.1478V47.6545C236.942 45.392 236.988 44.1453 238.846 43.9145L239.543 43.8221C239.868 43.5451 239.821 42.8987 239.496 42.714C238.01 42.8063 236.524 42.8525 234.758 42.8525C232.111 42.8525 229.649 42.8063 228.348 42.714C228.023 42.8525 227.977 43.6374 228.348 43.8221L230.299 44.053C233.086 44.3762 233.226 44.6532 233.226 48.3471V50.1016C233.226 51.533 232.993 52.3179 232.761 52.6412C232.25 53.3799 230.624 53.9802 227.837 53.9802C218.873 53.9802 214.413 47.2851 214.413 38.7431C214.413 32.0942 218.222 25.9532 226.862 25.9532C231.414 25.9532 234.758 27.4769 236.013 32.2789C236.291 32.5559 237.081 32.5097 237.22 32.1403C236.802 29.4623 236.57 27.1537 236.57 25.7223C236.152 25.8146 234.758 25.4914 233.922 25.3067V25.3067ZM226.305 1.71234V1.62C226.258 1.48148 226.026 1.48148 225.979 1.48148C225.933 1.48148 225.886 1.48148 225.794 1.52765H225.747L225.701 1.57382C225.468 1.98938 225.376 2.03555 224.354 2.03555H216.643C215.807 2.03555 215.435 1.98938 215.342 1.57382V1.52765L215.296 1.48148C215.249 1.4353 215.157 1.38913 215.017 1.38913C214.971 1.38913 214.831 1.38913 214.738 1.4353L214.692 1.48148V1.52765C214.553 2.26642 214.274 3.42074 213.995 4.25186V4.29803L214.042 4.3442C214.135 4.57507 214.553 4.66741 214.738 4.5289H214.785V4.48272C214.971 4.06717 215.157 3.65161 215.575 3.23605C215.993 2.86667 216.922 2.82049 217.758 2.82049H218.78C219.198 2.82049 219.198 2.82049 219.198 3.28222V11.5472C219.198 13.5326 219.105 13.625 218.176 13.7173L217.525 13.7635H217.479C217.386 13.8097 217.293 13.9482 217.293 14.1329C217.293 14.2714 217.34 14.4099 217.479 14.4561H217.572C218.733 14.4099 219.383 14.4099 220.173 14.4099C220.916 14.4099 221.52 14.4099 222.589 14.4561H222.681C222.821 14.3637 222.867 14.1791 222.867 14.0867C222.867 13.9482 222.821 13.8097 222.728 13.7173L222.078 13.625C221.149 13.5326 221.102 13.4403 221.102 11.4548V3.14371C221.102 2.95901 221.102 2.77432 221.149 2.72815C221.195 2.68198 221.381 2.68198 221.52 2.68198H222.821C223.796 2.68198 224.493 2.82049 224.911 3.09753C225.097 3.23605 225.236 3.69778 225.329 4.3442V4.39038L225.376 4.43655C225.422 4.5289 225.561 4.57507 225.701 4.57507C225.886 4.57507 226.026 4.48272 226.072 4.39038V4.29803C225.933 3.97482 226.072 2.45111 226.305 1.71234V1.71234ZM209.304 11.5472V4.94445C209.304 2.91284 209.35 2.77432 210.326 2.72815L210.837 2.68198H210.883C210.976 2.6358 211.022 2.49728 211.022 2.31259C211.022 2.26642 210.976 2.03555 210.837 1.94321H210.744C209.861 1.98938 209.211 1.98938 208.421 1.98938C207.632 1.98938 206.981 1.98938 206.099 1.94321H206.006C205.867 2.03555 205.82 2.22025 205.82 2.31259C205.82 2.45111 205.867 2.58963 205.959 2.68198H206.006L206.517 2.72815C207.446 2.82049 207.539 2.91284 207.539 4.94445V11.5472C207.539 13.5326 207.492 13.625 206.517 13.7635L206.006 13.8097L205.959 13.8558C205.867 13.9482 205.82 14.1329 205.867 14.2714C205.867 14.4099 205.959 14.5023 206.052 14.5484H206.145C207.074 14.5023 207.725 14.5023 208.468 14.5023C209.211 14.5023 209.815 14.5023 210.79 14.5484H210.883C211.022 14.4561 211.069 14.2714 211.069 14.1791C211.069 14.0405 211.022 13.902 210.93 13.8097L210.419 13.7173C209.35 13.6711 209.304 13.5326 209.304 11.5472V11.5472ZM206.238 53.5646C204.334 53.3338 203.73 52.6873 202.429 48.855L196.298 30.986C195.648 29.0468 194.904 26.969 194.347 25.0297C194.254 24.7065 193.929 24.6142 193.697 24.6142C193.186 25.1682 192.442 25.9993 191.374 26.3226C191.513 27.0151 191.235 27.8924 190.631 29.4623L186.079 41.4673C184.221 46.454 182.967 49.3167 182.131 51.3945C181.527 53.0105 180.505 53.4723 179.436 53.5646L177.95 53.7031C177.671 53.934 177.764 54.6266 178.043 54.8113C179.251 54.7651 180.876 54.6728 182.316 54.6728C184.407 54.7189 185.8 54.7189 186.961 54.8113C187.379 54.6266 187.379 53.934 187.054 53.7031L185.568 53.5646C184.499 53.4723 184.267 53.1952 184.267 52.6873C184.267 52.1794 184.592 50.9789 185.243 48.9935L186.822 44.33C187.147 43.4066 187.379 43.268 188.541 43.268H195.276C196.623 43.268 196.809 43.4066 197.087 44.3762L199.038 50.4249C199.41 51.4868 199.596 52.2718 199.596 52.7797C199.596 53.2414 198.992 53.4723 198.016 53.5646L196.716 53.7031C196.391 53.934 196.437 54.6266 196.809 54.8113C198.109 54.7651 199.782 54.6728 201.965 54.6728C203.962 54.6728 205.541 54.7189 207.353 54.8113C207.585 54.6266 207.678 53.934 207.353 53.7031L206.238 53.5646ZM194.719 41.4673H189.237C187.983 41.4673 187.937 41.4211 188.308 40.4053L191.142 32.6944C191.653 31.3554 192.071 30.2934 192.21 30.0626H192.303C192.582 30.6166 192.953 31.8171 193.325 32.8791L195.74 40.1283C196.112 41.2826 196.019 41.4673 194.719 41.4673ZM196.53 4.48272C196.53 3.79013 196.809 2.58963 198.62 2.58963C200.246 2.58963 200.757 3.65161 201.036 4.57507L201.082 4.62124C201.129 4.71359 201.222 4.71359 201.361 4.71359C201.5 4.71359 201.686 4.66741 201.779 4.5289L201.825 4.48272C201.825 3.74395 201.686 2.68198 201.5 2.17407L201.361 2.08173H201.268C201.129 2.08173 200.896 2.03555 200.664 1.98938C200.2 1.85086 199.503 1.75852 198.899 1.75852C196.53 1.75852 194.951 3.09753 194.951 5.08297C194.951 6.79137 196.251 7.89952 197.041 8.40743L198.806 9.46941C200.107 10.3005 200.246 11.1316 200.246 11.9627C200.246 12.9324 199.549 13.9482 198.063 13.9482C196.158 13.9482 195.369 12.5168 194.997 11.2702V11.224C194.951 11.1316 194.858 11.0855 194.719 11.0855C194.579 11.0855 194.44 11.1316 194.3 11.2702L194.254 11.3163V11.3625C194.3 12.1936 194.533 13.5788 194.765 13.9944V14.0405H194.811C195.183 14.2714 196.205 14.7331 197.784 14.7331C200.246 14.7331 201.872 13.3018 201.872 11.1778C201.872 9.70027 201.082 8.49977 199.456 7.48397L197.97 6.56051C197.506 6.28347 196.53 5.5447 196.53 4.48272V4.48272ZM191.839 14.5946C191.932 14.5484 191.978 14.4099 191.932 14.3176C191.932 14.2252 191.839 14.1329 191.746 14.0867H191.699C191.235 14.0405 190.817 13.8558 190.492 13.5788C189.191 12.5168 188.169 10.9469 186.776 8.68446C186.683 8.54595 186.683 8.4536 186.683 8.40743C187.286 8.13039 189.052 7.2531 189.052 5.22149C189.052 3.65161 188.169 2.86667 187.426 2.49728C186.497 1.98938 185.289 1.94321 184.267 1.94321C182.549 1.94321 181.248 1.98938 180.087 2.08173H180.04C179.947 2.1279 179.854 2.26642 179.854 2.40494C179.854 2.54346 179.901 2.72815 179.994 2.77432H180.04L180.691 2.86667C181.294 2.95901 181.387 3.05136 181.387 4.89828V11.5472C181.387 13.4865 181.341 13.625 180.412 13.7173L179.901 13.7635L179.854 13.8097C179.762 13.9482 179.762 14.0867 179.762 14.2252C179.808 14.3637 179.854 14.4561 179.947 14.5023H180.04C180.876 14.4561 181.527 14.4561 182.363 14.4561C183.152 14.4561 183.756 14.4561 184.592 14.5023H184.685C184.825 14.4561 184.871 14.2714 184.871 14.1791C184.871 13.9944 184.825 13.8558 184.778 13.8097L184.732 13.7635L184.314 13.7173C183.338 13.5788 183.338 13.4865 183.338 11.5472V9.19237C183.338 8.91533 183.338 8.91533 184.081 8.91533C184.778 8.91533 185.057 9.10002 185.289 9.42323C185.568 9.83879 185.893 10.3467 186.218 10.8546C186.543 11.3625 186.868 11.8704 187.101 12.2398C188.401 14.0405 189.33 14.6408 191.049 14.6408C191.281 14.687 191.606 14.687 191.839 14.5946V14.5946ZM186.218 7.71483C185.707 8.13039 184.964 8.17656 184.407 8.17656C183.57 8.17656 183.292 8.13039 183.245 8.13039V3.28222C183.245 2.86667 183.245 2.82049 184.314 2.82049C186.404 2.82049 187.147 4.29803 187.147 5.5447C187.101 6.56051 186.822 7.2531 186.218 7.71483V7.71483ZM176.603 11.8704V11.7781C176.51 11.5934 176.324 11.501 176.185 11.501C176.092 11.501 175.999 11.5472 175.953 11.5934L175.906 11.6395C175.395 12.7015 174.884 13.2556 174.652 13.3479C174.234 13.5326 173.677 13.625 172.33 13.625C170.797 13.625 170.379 13.4403 170.193 13.2556C169.914 12.9786 169.868 12.3783 169.868 11.4087V8.77681C169.868 8.40743 169.868 8.40743 170.332 8.40743H171.401C172.051 8.40743 172.515 8.40743 172.794 8.49977C173.073 8.54595 173.166 8.73064 173.259 9.10002L173.444 9.83879L173.491 9.88496C173.584 9.97731 173.677 10.0235 173.862 10.0235C174.048 10.0235 174.188 9.97731 174.234 9.83879V9.74644C174.234 9.56175 174.234 9.33089 174.188 9.05385C174.188 8.73064 174.141 8.31508 174.141 7.9457C174.141 7.57631 174.188 7.16076 174.188 6.79137C174.188 6.51433 174.234 6.2373 174.234 6.0526V5.96026C174.188 5.86791 174.048 5.77557 173.862 5.77557C173.723 5.77557 173.584 5.82174 173.491 5.91409L173.305 6.7452C173.212 7.16076 173.119 7.2531 172.933 7.29928C172.748 7.34545 172.19 7.39162 171.401 7.39162H170.332C169.868 7.39162 169.868 7.39162 169.868 7.02224V3.46692C169.868 2.86667 169.868 2.86667 170.286 2.86667H171.633C172.422 2.86667 173.026 2.86667 173.398 2.95901C174.234 3.18988 174.42 3.69778 174.699 4.5289L174.745 4.62124L174.791 4.66741C174.838 4.75976 174.977 4.80593 175.117 4.80593C175.256 4.80593 175.442 4.75976 175.488 4.62124L175.535 4.57507L175.488 4.29803C175.395 3.23605 175.302 2.31259 175.209 2.03555L175.163 1.89703L175.024 1.94321C174.838 1.98938 173.677 1.98938 172.562 1.98938H169.078C168.381 1.98938 167.731 1.98938 166.895 1.94321H166.802C166.663 2.03555 166.616 2.22025 166.616 2.31259C166.616 2.49728 166.663 2.58963 166.756 2.68198L167.127 2.72815C168.103 2.82049 168.149 2.95901 168.149 4.89828V11.5472C168.149 13.5326 168.056 13.625 167.127 13.7173L166.477 13.7635L166.43 13.8097C166.338 13.902 166.291 14.0867 166.338 14.2252C166.338 14.3637 166.43 14.4561 166.523 14.5023H166.616C167.685 14.4561 168.335 14.4561 169.125 14.4561H170.797C172.422 14.4561 174.048 14.4561 175.767 14.5023H175.86L175.906 14.4099C175.999 13.9482 176.51 12.5168 176.603 11.8704V11.8704ZM163.829 2.6358C163.969 2.54346 163.969 2.40494 163.969 2.26642C163.969 2.1279 163.876 2.03555 163.783 1.98938H163.69C163.086 2.03555 162.482 2.03555 161.878 2.03555C161.135 2.03555 160.438 2.03555 159.974 1.98938H159.881C159.788 2.03555 159.695 2.17407 159.695 2.31259C159.695 2.45111 159.742 2.58963 159.835 2.68198L159.881 2.72815L160.253 2.77432C160.903 2.86667 160.949 3.00519 160.949 3.00519C160.949 3.14371 160.949 3.3284 160.81 3.69778C160.485 4.48272 159.602 6.60668 159.091 7.85335C158.952 8.17656 158.766 8.59212 158.58 9.05385C158.209 9.88496 157.791 10.9008 157.419 11.6857C156.537 9.6541 155.747 7.66866 154.911 5.59087C154.353 4.25186 154.075 3.28222 153.982 3.05136C154.028 3.00519 154.168 2.91284 154.725 2.82049L155.05 2.77432L155.097 2.72815C155.19 2.6358 155.236 2.49728 155.236 2.35876C155.236 2.22025 155.143 2.08173 155.05 2.03555H154.957C154.121 2.08173 153.471 2.08173 152.728 2.08173C151.938 2.08173 151.334 2.08173 150.823 2.03555H150.777L150.73 2.08173C150.637 2.1279 150.545 2.26642 150.545 2.40494C150.545 2.54346 150.591 2.68198 150.684 2.77432L150.73 2.82049L151.102 2.86667C151.845 2.95901 152.077 3.28222 152.495 4.29803L155.793 12.3321C156.165 13.3018 156.49 14.1329 156.629 14.7793V14.8716L156.676 14.9178C156.769 14.964 156.908 14.964 157.001 14.964C157.094 14.964 157.187 14.9178 157.28 14.8716L157.326 14.8255V14.7793C157.651 13.7635 158.534 11.5934 159.277 9.97731L160.299 7.71483C161.182 5.77557 161.878 4.29803 162.389 3.46692C162.622 3.09753 162.854 2.91284 163.225 2.86667L163.829 2.6358V2.6358ZM151.706 28.4003C148.315 31.0322 146.085 35.2339 146.085 40.1745C146.085 45.8999 148.872 49.9631 152.449 52.4103C155.7 54.5804 159.556 55.3654 163.597 55.3654C166.477 55.3654 169.682 54.7189 170.657 54.3496C171.168 54.1649 171.679 53.9802 172.237 53.8878C172.887 53.0567 174.048 50.1016 174.373 47.793C174.188 47.4698 173.537 47.3774 173.212 47.6083C172.19 50.2402 169.635 53.9802 163.876 53.9802C156.537 53.9802 150.591 48.8088 150.591 39.4819C150.591 30.2934 156.397 25.9993 163.225 25.9993C169.682 25.9993 171.726 29.4623 172.376 32.4636C172.701 32.7406 173.351 32.6944 173.584 32.3712C173.212 29.647 173.026 26.8766 172.98 25.8608C172.562 25.907 172.283 25.8146 171.726 25.6761C169.635 25.0759 166.245 24.6142 163.829 24.6142C159.091 24.6603 154.957 25.907 151.706 28.4003V28.4003ZM145.992 11.5472V4.94445C145.992 2.95901 146.039 2.77432 147.014 2.72815L147.525 2.68198H147.572C147.665 2.6358 147.711 2.49728 147.711 2.31259C147.711 2.26642 147.665 2.03555 147.525 1.94321H147.432C146.55 1.98938 145.9 1.98938 145.11 1.98938C144.32 1.98938 143.67 1.98938 142.787 1.94321H142.694C142.555 2.03555 142.509 2.22025 142.509 2.31259C142.509 2.49728 142.555 2.58963 142.648 2.68198H142.694L143.205 2.72815C144.134 2.82049 144.227 2.95901 144.227 4.94445V11.5472C144.227 13.5326 144.181 13.625 143.205 13.7635L142.694 13.8097L142.648 13.8558C142.555 13.9482 142.509 14.1329 142.555 14.2714C142.555 14.4099 142.648 14.5023 142.741 14.5484H142.834C143.763 14.5023 144.413 14.5023 145.156 14.5023C145.9 14.5023 146.55 14.5023 147.479 14.5484H147.572C147.711 14.4561 147.758 14.2714 147.758 14.1791C147.758 14.0405 147.711 13.902 147.618 13.8097L147.107 13.7173C146.039 13.6711 145.992 13.5326 145.992 11.5472V11.5472ZM136.61 47.9315V32.0942C136.61 27.3845 136.702 26.6458 139.35 26.4149L140.465 26.3226C140.744 26.1379 140.651 25.3529 140.372 25.2144C138.142 25.3067 136.61 25.3529 134.844 25.3529C132.986 25.3529 131.454 25.3067 129.224 25.2144C128.945 25.3529 128.852 26.1379 129.131 26.3226L130.246 26.4149C132.893 26.6458 132.986 27.3845 132.986 32.0942V47.8853C132.986 52.595 132.893 53.1952 130.246 53.5184L129.131 53.657C128.852 53.934 128.945 54.6266 129.224 54.7651C131.454 54.6728 132.986 54.6266 134.844 54.6266C136.61 54.6266 138.142 54.6728 140.372 54.7651C140.651 54.6266 140.744 53.8417 140.465 53.657L139.35 53.5184C136.702 53.2414 136.61 52.6412 136.61 47.9315V47.9315ZM138.932 2.6358C139.025 2.54346 139.071 2.40494 139.071 2.26642C139.071 2.1279 138.978 2.03555 138.886 1.94321L138.839 1.89703H138.793C138.189 1.94321 137.678 1.94321 136.888 1.94321C136.238 1.94321 135.634 1.94321 134.705 1.89703H134.612C134.519 1.94321 134.426 2.03555 134.38 2.17407C134.333 2.35876 134.38 2.49728 134.519 2.58963L134.566 2.6358L134.937 2.68198C135.588 2.77432 135.913 2.86667 136.006 3.00519C136.238 3.37457 136.377 4.71359 136.377 6.7452V11.224C135.727 10.5776 135.077 9.79262 134.194 8.86916L131.593 5.96026C129.735 3.92865 128.713 2.54346 128.481 1.94321L128.434 1.85086H128.341C128.109 1.89703 127.83 1.89703 127.505 1.89703C127.18 1.89703 126.205 1.89703 125.415 1.85086H125.322C125.229 1.89703 125.136 1.98938 125.136 2.1279C125.09 2.26642 125.136 2.45111 125.229 2.54346L125.276 2.58963L125.647 2.6358C126.158 2.68198 126.53 2.82049 126.716 3.05136C127.087 3.42074 127.087 3.79013 127.087 4.29803V9.79262C127.087 10.6699 127.087 12.7939 126.855 13.3941C126.809 13.4865 126.669 13.625 126.158 13.6711L125.601 13.7173L125.554 13.7635C125.461 13.8558 125.415 13.9944 125.461 14.1329C125.508 14.2714 125.554 14.4099 125.647 14.4561L125.694 14.5023H125.74C126.391 14.4561 126.901 14.4561 127.691 14.4561C128.341 14.4561 128.945 14.4561 129.874 14.5023H129.921L129.967 14.4561C130.06 14.4099 130.107 14.3176 130.153 14.1791C130.153 14.0405 130.153 13.902 130.06 13.8097L130.014 13.7635L129.363 13.7173C128.899 13.6711 128.62 13.5788 128.527 13.4403C128.341 13.0709 128.202 11.7319 128.202 9.70027V5.68322C128.202 5.36001 128.202 4.99063 128.249 4.75976C128.527 5.08297 129.038 5.68322 129.503 6.19112C129.828 6.56051 130.107 6.88372 130.292 7.06841L134.612 11.9627C136.052 13.5788 136.749 14.4099 136.981 14.7331L137.028 14.7793H137.12C137.353 14.7793 137.539 14.687 137.631 14.4561V14.3637C137.585 14.1329 137.585 13.3941 137.585 11.1316V6.46816C137.585 5.49853 137.585 3.55926 137.864 2.95901C137.864 2.91284 138.096 2.77432 138.793 2.6358H138.932V2.6358ZM122.256 2.6358C122.349 2.54346 122.396 2.40494 122.349 2.26642C122.349 2.17407 122.256 2.03555 122.164 1.98938H122.071C121.42 2.03555 120.909 2.03555 120.12 2.03555C119.423 2.03555 118.726 2.03555 117.983 1.98938H117.937L117.89 2.03555C117.797 2.08173 117.751 2.22025 117.704 2.31259C117.704 2.45111 117.704 2.58963 117.797 2.68198L117.844 2.72815L118.355 2.77432C118.773 2.82049 119.051 2.91284 119.191 3.09753C119.423 3.46692 119.516 4.80593 119.516 6.83755V8.9615C119.516 11.1316 118.912 13.7635 115.939 13.7635C113.477 13.7635 112.316 12.2398 112.316 8.9615V4.89828C112.316 2.91284 112.363 2.77432 113.292 2.72815L113.756 2.68198H113.803C113.895 2.6358 113.942 2.49728 113.942 2.35876C113.942 2.22025 113.895 2.08173 113.756 1.98938H113.663C112.781 2.03555 112.177 2.03555 111.387 2.03555C110.644 2.03555 109.947 2.03555 109.065 1.98938H108.972C108.832 2.03555 108.786 2.22025 108.786 2.35876C108.786 2.49728 108.832 2.6358 108.925 2.68198H108.972L109.483 2.72815C110.412 2.82049 110.458 2.95901 110.458 4.89828V9.28471C110.458 11.501 110.923 12.8862 111.945 13.7635C112.781 14.4561 113.988 14.8255 115.521 14.8255C117.008 14.8255 118.401 14.2714 119.191 13.4403C120.073 12.4707 120.538 10.9931 120.538 8.91533V6.83755C120.538 5.91409 120.538 3.69778 120.77 3.14371C120.863 2.95901 121.188 2.82049 121.56 2.77432L122.071 2.72815L122.256 2.6358V2.6358ZM100.843 26.3226C101.122 26.1379 101.029 25.3529 100.75 25.2144C98.8456 25.3067 97.3128 25.3529 95.5477 25.3529C93.6432 25.3529 92.1104 25.2606 89.9272 25.2144C89.6485 25.3529 89.5556 26.1379 89.8343 26.3226L90.9956 26.4149C93.3181 26.5996 93.6432 27.3384 93.6432 32.0018V47.9777C93.6432 52.6412 93.5503 53.1029 91.042 53.5184L90.2988 53.657C90.0201 53.934 90.113 54.6266 90.3917 54.7651C92.1568 54.7189 93.6432 54.6266 95.5941 54.6266C97.3592 54.6266 98.8456 54.6728 101.261 54.7651C101.54 54.6266 101.633 53.8417 101.354 53.657L100.053 53.5184C97.545 53.2414 97.3128 52.6412 97.3128 47.9777V41.7443C97.3128 40.4053 97.4057 40.313 99.5424 40.313H112.316C114.453 40.313 114.546 40.4053 114.546 41.7443V48.0239C114.546 52.6873 114.546 53.1491 111.805 53.5646L110.969 53.7031C110.69 53.9802 110.783 54.6728 111.062 54.8113C113.013 54.7189 114.639 54.6728 116.45 54.6728C118.215 54.6728 119.702 54.7189 121.838 54.8113C122.117 54.6728 122.21 53.8878 121.931 53.7031L120.863 53.5646C118.262 53.2414 118.169 52.6873 118.169 48.0239V32.0018C118.169 27.3384 118.262 26.6919 120.863 26.4149L121.792 26.3226C122.071 26.1379 121.978 25.3529 121.699 25.2144C119.702 25.3067 118.169 25.3529 116.404 25.3529C114.592 25.3529 113.059 25.3067 111.016 25.2144C110.737 25.3529 110.644 26.1379 110.923 26.3226L111.759 26.4149C114.406 26.6919 114.499 27.3384 114.499 32.0018V37.127C114.499 38.5122 114.406 38.5584 112.27 38.5584H99.4959C97.3592 38.5584 97.2663 38.5122 97.2663 37.127V32.0018C97.2663 27.3384 97.3592 26.6919 99.9604 26.4149L100.843 26.3226V26.3226ZM99.0314 11.8704V11.7781C98.9385 11.5934 98.7527 11.501 98.6134 11.501C98.5205 11.501 98.4276 11.5472 98.3811 11.5934L98.3347 11.6395C97.8237 12.7015 97.3128 13.2556 97.0805 13.3479C96.6625 13.5326 96.1051 13.625 94.758 13.625C93.2252 13.625 92.8071 13.4403 92.6213 13.2556C92.3426 12.9786 92.2962 12.3783 92.2962 11.4087V8.77681C92.2962 8.40743 92.2962 8.40743 92.7607 8.40743H93.829C94.4793 8.40743 94.9438 8.40743 95.2225 8.49977C95.5012 8.54595 95.5941 8.73064 95.687 9.10002L95.8728 9.83879L95.9193 9.88496C95.9657 9.97731 96.1051 10.0235 96.2909 10.0235C96.4767 10.0235 96.616 9.97731 96.6625 9.83879V9.74644C96.6625 9.56175 96.6625 9.33089 96.616 9.05385C96.616 8.73064 96.5696 8.31508 96.5696 7.9457C96.5696 7.57631 96.5696 7.16076 96.616 6.79137C96.616 6.51433 96.6625 6.2373 96.6625 6.0526V5.96026C96.616 5.86791 96.4767 5.77557 96.2909 5.77557C96.1515 5.77557 96.0122 5.82174 95.9193 5.91409L95.7335 6.7452C95.6406 7.16076 95.5477 7.2531 95.3619 7.29928C95.1761 7.34545 94.6187 7.39162 93.829 7.39162H92.7607C92.2962 7.39162 92.2962 7.39162 92.2962 7.02224V3.46692C92.2962 2.86667 92.2962 2.86667 92.7142 2.86667H94.0613C94.8509 2.86667 95.4548 2.86667 95.8264 2.95901C96.6625 3.18988 96.8483 3.69778 97.127 4.5289L97.1734 4.62124L97.2199 4.66741C97.2663 4.75976 97.4057 4.80593 97.545 4.80593C97.6844 4.80593 97.8702 4.75976 97.9166 4.62124L97.9631 4.57507L97.9166 4.29803C97.8237 3.23605 97.7308 2.31259 97.6379 2.03555L97.5915 1.89703L97.4521 1.94321C97.2663 1.98938 96.1051 1.98938 94.9903 1.98938H91.5065C90.8098 1.98938 90.1595 1.98938 89.3234 1.94321H89.2305C89.0911 2.03555 89.0447 2.22025 89.0447 2.31259C89.0447 2.45111 89.0911 2.58963 89.184 2.68198L89.5556 2.72815C90.5311 2.82049 90.5775 2.95901 90.5775 4.89828V11.5472C90.5775 13.5326 90.4846 13.625 89.5556 13.7173L88.9053 13.7635L88.8589 13.8097C88.766 13.902 88.7195 14.0867 88.766 14.2252C88.766 14.3637 88.8589 14.4561 88.9518 14.5023H89.0447C90.113 14.4561 90.7633 14.4561 91.553 14.4561H93.2252C94.8509 14.4561 96.4767 14.4561 98.1953 14.5023H98.2882L98.3347 14.4099C98.4276 13.9482 98.8921 12.5168 99.0314 11.8704V11.8704ZM83.4707 11.5934V4.94445C83.4707 2.95901 83.5171 2.86667 84.4461 2.77432L84.8177 2.72815H84.8642C84.9571 2.68198 85.0035 2.54346 85.0035 2.35876C85.0035 2.31259 84.9571 2.08173 84.8177 1.98938H84.7248C83.8423 2.03555 83.192 2.03555 82.5417 2.03555C81.752 2.03555 81.1017 2.03555 80.3121 1.98938H80.2192C80.0798 2.08173 80.0334 2.26642 80.0334 2.35876C80.0334 2.54346 80.0798 2.6358 80.1727 2.72815L80.5908 2.77432C81.5198 2.86667 81.6127 3.00519 81.6127 4.94445V7.06841C81.6127 7.53014 81.6127 7.53014 80.823 7.53014H75.4813C74.6916 7.53014 74.6916 7.53014 74.6916 7.06841V4.94445C74.6916 2.95901 74.7381 2.86667 75.6671 2.77432L76.0387 2.72815H76.0851C76.178 2.68198 76.2245 2.54346 76.2245 2.35876C76.2245 2.31259 76.178 2.08173 76.0387 1.98938H75.9458C75.1097 2.03555 74.4593 2.03555 73.809 2.03555C73.3445 2.03555 72.88 2.03555 72.4155 1.98938C72.1368 1.98938 71.8117 1.98938 71.4401 1.94321H71.3472C71.2079 2.03555 71.1614 2.22025 71.1614 2.31259C71.1614 2.49728 71.2078 2.58963 71.3007 2.68198H71.3472L71.8581 2.72815C72.6942 2.77432 72.8336 2.95901 72.8336 4.89828V11.5472C72.8336 13.4865 72.7871 13.5326 71.8581 13.7173L71.4865 13.7635L71.4401 13.8097C71.3472 13.902 71.3008 14.0867 71.3472 14.2252C71.3472 14.3637 71.4401 14.4561 71.533 14.5023H71.6259C71.9046 14.5023 72.1369 14.5023 72.3691 14.4561C72.7872 14.4561 73.2517 14.4099 73.7626 14.4099C74.4594 14.4099 75.0632 14.4099 76.1316 14.4561H76.2245C76.3638 14.4099 76.4103 14.2252 76.4103 14.0867C76.4103 13.9482 76.3638 13.8097 76.2709 13.7173L75.6671 13.625C74.7845 13.5326 74.6452 13.4403 74.6452 11.4548V8.82298C74.6452 8.36125 74.6451 8.36125 75.4348 8.36125H80.7766C81.5662 8.36125 81.5662 8.36125 81.5662 8.82298V11.4548C81.5662 13.4403 81.5662 13.4865 80.5443 13.625L80.1263 13.6711L80.0798 13.7173C79.9869 13.8097 79.9405 13.9944 79.9869 14.1329C79.9869 14.2714 80.0798 14.3637 80.1727 14.4099H80.2656C81.1482 14.3637 81.7985 14.3637 82.4952 14.3637C83.2384 14.3637 83.8887 14.3637 84.7248 14.4099H84.8177C84.9571 14.3176 85.0035 14.1329 85.0035 14.0405C85.0035 13.902 84.9571 13.7635 84.8642 13.6711L84.3532 13.5788C83.5171 13.6711 83.4707 13.5326 83.4707 11.5934V11.5934ZM68.1886 1.71234V1.66617L68.1421 1.62C68.0492 1.48148 67.8634 1.48148 67.817 1.48148C67.7705 1.48148 67.7241 1.48148 67.6312 1.52765H67.5847L67.5383 1.57382C67.306 1.98938 67.2131 2.03555 66.1912 2.03555H58.4805C57.6444 2.03555 57.2728 1.98938 57.1799 1.57382V1.52765L57.1335 1.48148C57.087 1.4353 56.9941 1.38913 56.8548 1.38913C56.8083 1.38913 56.669 1.38913 56.5761 1.4353L56.5296 1.48148V1.52765C56.3903 2.26642 56.1116 3.42074 55.8329 4.25186V4.29803L55.8793 4.3442C55.9722 4.57507 56.3903 4.66741 56.5761 4.5289H56.6225V4.48272C56.8083 4.06717 56.9941 3.65161 57.4122 3.23605C57.8302 2.86667 58.7592 2.82049 59.5953 2.82049H60.6172C61.0353 2.82049 61.0353 2.82049 61.0353 3.28222V11.5472C61.0353 13.5326 60.9424 13.625 60.0134 13.7173L59.3631 13.7635H59.3166C59.2237 13.8097 59.1308 13.9482 59.1308 14.1329C59.1308 14.2714 59.1773 14.4099 59.3166 14.4561H59.4095C60.5708 14.4099 61.2211 14.4099 62.0107 14.4099C62.7539 14.4099 63.3578 14.4099 64.4261 14.4561H64.519C64.6584 14.4099 64.7048 14.2252 64.7048 14.0867C64.7048 13.9482 64.6584 13.8097 64.5655 13.7173L63.9152 13.625C62.9862 13.5326 62.9397 13.4403 62.9397 11.4548V3.14371C62.9397 2.95901 62.9397 2.77432 62.9862 2.72815C63.0326 2.68198 63.2184 2.68198 63.3578 2.68198H64.6584C65.6338 2.68198 66.3306 2.82049 66.7486 3.09753C66.9344 3.23605 67.0738 3.69778 67.1667 4.3442V4.39038L67.2131 4.43655C67.2596 4.5289 67.3989 4.57507 67.5383 4.57507C67.7241 4.57507 67.8634 4.48272 67.9099 4.39038V4.29803C67.8634 3.97482 67.9563 2.45111 68.1886 1.71234V1.71234ZM55.5077 40.1745C55.5077 45.8999 58.2947 49.9631 61.8714 52.4103C65.1229 54.5804 68.9782 55.3654 73.0194 55.3654C75.8993 55.3654 79.1044 54.7189 80.0798 54.3496C80.5908 54.1649 81.1017 53.9802 81.6591 53.8878C82.3094 53.0567 83.4707 50.1016 83.7958 47.793C83.61 47.4698 82.9597 47.3774 82.6346 47.6083C81.6127 50.2402 79.0579 53.9802 73.2981 53.9802C65.959 53.9802 60.0134 48.8088 60.0134 39.4819C60.0134 30.2934 65.8196 25.9993 72.6478 25.9993C79.1044 25.9993 81.1482 29.4623 81.7985 32.4636C82.1236 32.7406 82.7739 32.6944 83.0062 32.3712C82.6346 29.647 82.4488 26.8766 82.4023 25.8608C81.9843 25.907 81.7056 25.8146 81.1482 25.6761C79.0579 25.0759 75.6671 24.6142 73.2517 24.6142C68.6066 24.6142 64.4726 25.8608 61.1746 28.4003C57.7373 31.0322 55.5077 35.2801 55.5077 40.1745V40.1745ZM43.8952 32.6944V1.75852C18.8587 -0.64248 -6.10352e-05 1.75852 -6.10352e-05 1.75852V32.6944C1.99729 53.657 21.7386 56.1503 21.9244 56.1041C25.4546 55.4577 42.0372 52.1794 43.8952 32.6944V32.6944ZM7.06034 40.4053C7.4784 40.6824 7.9429 40.7747 8.36095 40.9594C8.8719 42.3446 8.36095 43.7298 8.08225 43.1295C7.52485 42.2061 7.33905 41.3749 7.06034 40.4053ZM7.06034 25.2144C6.96744 25.1682 4.27334 26.9228 2.46179 26.0917C3.80884 25.3529 8.36095 22.444 9.6151 21.6591C10.2189 21.7976 10.4512 21.5667 10.637 21.4282C10.1725 21.4744 8.54675 21.7053 9.38285 20.2739C9.708 21.5206 11.9376 20.3662 12.7272 20.1815C14.9569 19.6736 14.9569 22.0285 14.7711 23.0443C14.6782 23.4137 15.4678 23.6907 15.8394 23.5983C15.1891 25.1682 14.1208 23.6907 13.9814 24.2909C13.935 24.5218 13.1918 24.7065 13.1918 25.3067C13.1918 26.1379 13.5169 25.6761 13.5634 26.3226C13.6098 26.9228 13.2846 26.4611 13.3776 27.1075C13.4705 28.1695 15.2356 26.969 15.9788 27.246C16.3504 27.3845 16.5826 27.7077 16.9542 27.6616C17.0471 27.5692 17.0007 27.1537 17.0007 27.0151C16.9542 26.6919 16.3504 26.6458 16.0252 26.184C15.793 25.7685 16.3039 24.568 16.6291 24.2448C17.0471 26.2302 18.9051 25.63 19.2303 27.7077C19.4161 28.308 18.58 28.9544 19.2303 29.924C18.7193 30.3858 18.1619 32.6483 19.1838 33.7564C18.998 34.2181 18.7658 35.3725 19.6948 36.0189C19.3696 36.6653 19.4625 37.4964 19.6948 38.2814C19.1374 38.2814 19.2303 35.0954 15.793 34.9569C15.7001 34.9107 15.7001 35.3263 15.793 35.511C16.211 36.2497 16.7684 36.2036 16.6291 37.8658C16.5826 38.466 16.2575 37.7735 16.0717 37.5888C15.6536 37.2194 15.3285 37.1732 15.1427 35.9727C13.7492 37.0809 13.8885 38.3737 13.9814 39.0663C13.9814 39.0663 13.6563 38.2352 13.3311 37.3579C13.3311 37.3117 14.7711 35.6033 15.0033 35.1878C17.9297 29.9702 13.1453 36.85 13.0989 36.85C12.8202 36.2497 12.6343 35.7418 12.4485 35.6033C12.495 35.511 13.2847 34.6337 13.6563 33.8949C15.8859 29.2315 12.3092 35.4648 12.1698 35.3263C11.8911 35.0954 11.6589 34.7722 11.5195 34.9107C11.4731 35.6033 11.2873 35.511 11.3337 36.2497C10.9621 36.7576 10.1725 37.5426 9.6151 37.912C9.6151 37.912 9.47575 36.6191 9.5222 36.573C9.8009 36.2497 10.9157 35.0492 11.1479 34.6799C14.8175 28.9544 9.4293 36.0651 9.4293 36.0189C9.38285 35.788 9.10415 35.4186 8.779 35.0954C8.779 35.0954 9.9867 33.4794 10.2654 32.8791C12.495 28.308 8.45385 34.9107 8.4074 34.8646C8.3145 34.8184 8.3145 34.8184 8.17515 34.7722C8.08225 34.726 8.3145 33.4332 8.45385 32.6944C8.779 31.1707 7.9429 32.4174 7.71065 34.8184C7.52485 34.8646 7.01389 34.9107 6.82809 35.0954C6.96744 35.7418 7.10679 35.2339 7.3855 35.8804C7.71065 36.6191 6.92099 37.8196 7.61775 38.7431C7.89645 39.0663 7.89645 39.0201 7.85 39.251C7.43195 39.2048 7.19969 39.2048 6.92099 39.5742C6.41004 37.2656 6.41004 36.1574 6.54939 33.8026C6.59584 32.7406 6.96745 31.1245 6.78164 31.0784C6.64229 31.0322 4.18044 37.3117 3.62304 38.5122C2.50824 38.1428 4.18044 32.7406 6.27069 30.1087C6.50294 29.3238 5.15589 30.986 4.41269 31.6324C3.71594 32.2327 2.78694 33.0176 1.81149 32.7406C3.06564 31.4016 5.99199 28.9082 6.31714 28.2618C6.59584 27.7077 4.31979 29.924 1.95084 29.0929C3.43724 28.308 7.06034 26.5072 7.06034 25.2144ZM11.3802 36.9423C11.3802 37.4964 11.3337 37.912 11.5195 38.5122C11.7982 39.3895 11.6589 39.1125 11.2873 38.8354C11.0086 38.5122 10.7299 38.2352 10.5905 37.8658C10.5441 37.5888 10.7299 37.5888 11.3802 36.9423V36.9423ZM17.14 22.9057C16.7684 22.3055 17.5581 21.7514 17.5581 21.7514C17.5581 23.4137 19.6948 22.2593 20.8096 22.8134C21.0883 22.9519 21.2741 23.1828 21.367 23.4137C20.1593 22.5825 17.9297 24.2448 17.14 22.9057V22.9057ZM4.59849 9.60792C2.69404 9.60792 2.74049 6.7452 4.59849 6.7452C6.45649 6.79137 6.45649 9.60792 4.59849 9.60792ZM4.59849 15.2872C2.64759 15.2872 2.64759 12.4245 4.59849 12.4245C6.45649 12.4707 6.45649 15.2872 4.59849 15.2872ZM8.17515 9.14619H6.50294V7.53014H8.17515V9.14619V9.14619ZM8.17515 14.8255H6.50294V13.2094H8.17515V14.8255V14.8255ZM21.6457 17.642C21.6457 17.642 19.927 16.7186 17.8832 16.58C15.8859 16.3954 11.8911 17.9652 8.82545 17.7805V4.39038C8.82545 4.39038 12.3092 4.85211 13.7492 4.29803C18.6264 2.40494 21.6457 4.5289 21.6457 4.5289V17.642ZM24.9901 19.8122C25.083 20.3201 24.6185 20.4586 24.6185 20.4586C25.3617 20.6433 25.6868 20.1815 25.8262 19.9045C26.1049 21.0588 24.9436 21.1512 24.572 21.1973C24.572 21.1973 25.1759 21.382 25.2223 21.7514C25.3152 22.7211 25.9191 22.6287 26.0584 22.5825C26.0584 22.7211 25.8262 23.2751 25.1294 22.7672C24.9901 22.9057 25.3152 23.0904 25.4081 23.5522C25.501 24.1524 25.4546 24.7527 26.1978 25.1221C25.7797 25.4914 25.2223 24.568 25.1759 24.6603C25.1294 24.7988 25.7797 25.1221 25.0365 26.8305C24.7114 26.6458 24.8972 26.6919 24.5256 26.2302C24.2469 25.9993 24.1075 25.907 24.3398 26.3226C24.7578 26.8766 24.8507 28.0771 24.7114 28.4003C24.3398 28.2618 24.4327 27.9848 24.0146 27.5692C23.9682 27.7539 24.154 28.5389 24.572 28.9082C25.3152 29.5547 25.5939 30.3858 25.5939 30.5243C25.6404 31.1245 25.4546 31.9557 25.4081 32.7406C25.0365 32.6944 24.7578 31.6786 24.6649 31.7248C24.572 31.771 24.7114 32.6944 25.4081 33.3408C25.7333 34.3105 25.5939 34.8184 25.501 34.8184C25.4081 34.8646 25.0365 33.8487 24.8043 34.0334C25.7797 36.4806 25.083 37.3117 24.8507 38.0505C24.6649 37.2656 24.572 36.7115 24.2933 35.8342C23.7824 36.2497 23.643 36.85 22.9927 37.4041C22.9927 36.4344 22.4353 34.0334 21.9708 33.4794C21.9708 33.4332 21.1347 35.6033 20.7631 36.573C20.2986 37.8196 20.2057 39.3895 20.7631 40.59C19.5554 38.9278 19.4625 35.788 20.4844 35.3725C20.5773 35.1416 20.438 34.4028 20.2057 34.4952C20.1593 34.8646 20.2057 35.1416 19.8806 35.511C19.0909 35.2801 19.4625 34.3105 19.509 34.0334C20.5309 32.8329 19.8806 32.5559 19.8341 32.5559C19.7412 32.8329 19.6483 33.1562 19.3232 33.2947C18.6729 32.1865 19.0909 30.4319 20.3451 29.0929C20.3915 28.585 19.7877 29.4623 19.4161 29.4161C19.3232 28.4927 19.6483 26.8305 21.4134 26.7843C21.0883 26.6919 20.9025 26.6458 20.8096 26.3687C21.3205 26.2764 22.9927 26.184 22.714 24.845C22.5747 24.9835 22.5282 25.2144 22.0637 25.4914C21.785 25.6761 21.4599 25.6761 21.2741 25.4453C22.0637 25.2144 21.785 24.2448 20.7631 24.5218C20.438 24.6142 20.0199 24.2909 19.9735 23.9216C20.2057 24.1524 20.6702 23.9677 20.9025 23.8292C22.0173 23.0904 22.714 24.1524 22.8998 24.3833C22.9463 24.3833 23.4108 23.3213 21.785 23.0443C21.6457 22.6749 21.2741 22.0285 20.2057 22.0746C19.8341 20.828 18.7658 21.4282 18.8122 22.0285C17.651 21.1973 18.8122 20.1354 19.2767 19.9507C19.6019 19.9969 19.509 21.0127 20.1128 20.828C20.2522 20.7818 19.6483 20.1354 19.8806 19.8122C20.3915 19.5351 20.3915 20.1815 20.6702 19.9507C20.8096 19.4889 21.3205 19.2581 21.7386 19.2119C22.9463 19.1196 23.8753 20.4124 24.9901 19.8122V19.8122ZM35.6271 17.8267C33.0724 18.0114 27.7306 16.5339 26.3836 16.5339C23.5966 16.5339 22.2495 17.5959 22.2495 17.5959V4.5289C22.2495 4.5289 25.9191 2.82049 28.6132 3.79013C31.8647 4.99063 35.6736 4.43655 35.6736 4.43655L35.6271 17.8267V17.8267ZM39.018 12.6553C40.4115 12.4707 40.6437 14.1329 40.6437 14.1329C40.2721 13.8558 39.5754 13.7173 39.1109 14.0405C37.5316 15.0563 36.0916 15.0563 36.0916 15.0563V12.5168C36.1381 12.5168 36.4168 13.0709 39.018 12.6553ZM40.6902 9.19237C40.6902 9.10002 40.6437 9.00768 40.6437 8.82298C40.5973 8.54595 39.8541 8.40743 39.3431 8.63829C38.5999 8.9615 36.7884 9.97731 36.1381 9.79262V7.2531C37.7638 7.9457 38.4141 7.29928 38.9251 7.29928C40.5508 7.29928 40.5973 8.77681 40.5973 8.77681C40.6902 9.00768 40.6902 9.1462 40.6902 9.19237ZM38.8786 35.4648C38.4141 35.6033 37.16 36.0651 36.8348 36.573C36.9742 33.8487 36.1381 31.2169 35.8594 30.5705C35.302 29.3238 36.0916 33.4794 36.1381 34.449C36.1381 34.4952 31.6324 28.6774 34.373 33.1562C35.0697 34.3105 36.1845 35.0954 36.1845 35.0954C36.1845 35.8804 36.1381 36.4806 35.9987 36.9423C35.72 37.1732 29.8673 29.1853 33.1188 34.726C33.5369 35.4186 35.8594 37.4964 35.8594 37.5426C35.72 37.8658 35.4413 38.3275 35.0697 38.6507C35.0233 38.6046 33.7227 37.6349 33.7227 37.5888C33.6298 36.9885 33.6298 36.3883 32.8401 36.8038C32.8401 36.8038 29.9602 33.4794 31.3073 35.788C31.9111 36.8038 32.2827 36.9423 32.4221 37.127C32.4221 37.127 31.9576 37.7273 31.8182 38.3737C31.7718 38.6507 29.3099 35.6957 30.2854 37.5426C30.6105 38.1428 31.7253 38.7893 31.6789 38.8354C31.586 39.2048 31.4466 39.5742 31.3073 39.8512C31.1679 40.1745 28.9848 41.8829 28.9848 41.8829C28.9848 41.8829 29.4028 40.5438 30.3318 39.8512C30.8428 39.4819 30.8428 39.5742 31.2144 39.3433C31.2144 39.1586 31.0286 38.8354 30.7499 38.7431C30.4247 38.6507 29.4028 38.8354 29.4028 38.8354C29.4957 38.3275 29.0312 37.2194 29.0777 36.0189C28.7061 36.0651 28.0093 36.6653 27.87 36.9885C27.7306 38.974 27.3126 38.3737 26.8945 39.8051C26.43 39.2048 26.941 38.3275 26.4765 37.7735C25.8726 36.9885 25.7797 36.4806 25.6868 35.511C25.8262 35.4186 26.43 34.7722 25.8726 33.387C25.7797 31.1707 26.7552 30.3396 24.9901 28.8159C25.1294 28.7697 25.2688 27.6616 25.2688 27.6616C26.5694 28.3542 26.2907 26.8766 26.8016 26.5534C27.5913 26.0917 27.4519 25.5838 27.0803 24.9835C29.4028 25.63 26.9874 27.1998 28.0093 27.246C28.7525 27.246 29.2635 27.0613 29.5886 26.5534C29.9602 25.9993 29.5422 25.6761 30.5176 24.845C30.6105 24.7527 30.8892 24.1986 30.0996 24.0139C29.9138 23.9677 30.0996 23.3213 30.0996 23.3213C29.4957 23.8292 29.2635 24.568 28.288 24.1062C27.7771 23.8754 27.4519 24.1062 27.2197 24.1986C27.2197 24.1986 27.1268 23.783 27.5448 23.6445C28.6596 23.2751 28.8919 22.8596 28.8454 22.6287C28.7061 22.0746 28.6596 22.6287 28.7061 22.0285C28.7061 21.7976 28.9848 21.4744 29.217 21.1973C29.9602 20.3201 30.4712 20.6433 30.657 20.7356C31.075 20.4124 31.1679 20.4124 31.586 20.2739C32.2827 19.9969 33.7691 20.4586 34.6052 20.828C35.0233 21.0127 35.4878 21.105 35.9523 21.0127C35.9523 21.2435 35.7665 21.382 35.6271 21.4282C35.3484 21.5206 35.0697 21.4282 35.0697 21.6129C35.0697 21.7053 35.4413 21.7514 35.6736 21.7976C36.9277 22.1208 38.507 23.229 37.4387 22.9981C37.2993 22.9519 38.1819 23.6445 38.8786 24.5218L41.2476 26.7843C41.1547 26.9228 40.3186 26.7843 37.7174 24.3833C37.3458 24.7065 40.876 27.3845 42.3624 30.2011C42.223 30.2934 40.4115 29.647 39.7612 28.9544C38.7393 27.8924 37.578 25.2606 37.1135 25.63C37.0671 25.63 39.018 28.7235 40.0399 30.5243C40.5508 31.4478 40.9224 32.7868 40.9689 33.7564C41.1082 38.6507 40.365 38.2814 40.365 38.2814C39.2038 34.4028 38.6464 29.924 36.9742 27.8463C36.2774 27.0151 38.7857 31.4478 38.8786 35.4648V35.4648ZM33.7691 39.8974C33.2582 40.3591 32.8866 40.4977 33.0259 40.2668C33.1653 40.0359 33.2582 39.8051 33.3046 39.6204C33.3511 39.5742 33.7691 39.8974 33.7691 39.8974V39.8974ZM33.3975 39.2972C33.4904 38.8816 33.4904 38.6046 33.5833 38.2352C33.6298 38.0967 33.6298 38.0967 33.6298 37.9581C33.6298 37.912 34.7446 38.8816 34.8375 38.9278C34.5588 39.2972 34.3265 39.3895 34.0478 39.6665C33.8156 39.4819 33.3975 39.2972 33.3975 39.2972V39.2972ZM37.0671 40.5438C35.4878 42.0675 33.1653 41.5135 31.3073 42.3446C29.6351 42.9448 28.4274 44.5147 26.6623 44.8841C26.1513 45.0688 26.0584 45.2997 26.3836 45.2997C26.5694 45.2997 27.6377 46.4078 29.3564 45.5305C29.9138 45.2535 31.7253 44.2377 32.004 44.1915C31.0286 45.115 30.5641 45.8999 29.6815 46.4078C29.1706 46.6848 26.9874 47.4698 24.8507 47.0542C23.9217 46.8695 23.1785 47.7468 23.4108 47.7007C23.9217 47.5621 24.4791 47.6545 24.8507 48.07C25.4546 48.5318 26.3836 49.1782 27.1268 48.2547C27.4055 47.9777 28.6132 47.3313 29.7744 48.4856C28.5667 48.4394 28.6596 50.6095 26.3371 50.3787C25.4546 50.3787 23.5501 48.3932 23.0392 49.0397C22.0637 50.1016 25.083 51.1175 23.7824 52.5026C22.5747 53.7031 21.1812 51.533 21.1812 51.533C21.9244 51.8562 23.2714 52.0409 22.6676 50.8404C22.4353 50.3787 21.9708 49.9631 21.9708 49.0858C21.8779 48.6703 19.1374 52.5488 17.3723 50.7942C16.6755 50.1016 15.2356 48.5779 13.935 48.0239C17.3723 47.7468 17.8832 49.0858 18.0226 49.3167C19.1374 50.7942 20.1128 49.3167 20.3451 49.0397C20.7167 48.6241 21.2276 48.07 21.0418 47.9777C19.6948 47.3313 18.2084 47.2389 17.0471 47.7468C19.4625 44.4224 21.367 47.516 21.367 47.516C21.6457 47.7007 21.3205 45.5305 18.9051 45.4382C17.4187 45.3458 16.0717 46.6848 15.0498 46.6848C14.2137 46.6848 11.6589 44.9764 11.055 43.4527C12.5414 44.5609 14.4459 45.2073 15.6072 44.4685C17.8368 43.1757 20.6238 45.115 20.7631 44.8841C20.1593 44.4224 18.7193 42.5293 14.9104 43.5913C13.424 44.4224 12.8202 42.9448 11.8911 42.9448C13.424 41.6058 14.4924 42.2984 15.0498 42.2984C15.1891 42.2984 14.3995 41.652 13.8885 41.6058C9.66155 41.1903 7.0139 40.0359 7.0139 40.0359C7.0139 40.0359 7.3855 39.2048 9.1506 39.8051C9.1506 39.8051 7.52485 38.8354 7.52485 37.5426C7.5713 36.7576 7.9429 35.9265 7.33905 35.2801C9.8009 35.1878 8.0358 38.5584 9.75445 39.4357C9.8009 39.4357 9.2435 38.6046 10.0331 38.0043C10.4047 39.0201 11.2408 39.528 11.8911 39.6665C12.0305 39.5742 12.2163 39.2972 12.2163 39.2972C11.566 38.2352 11.4731 36.9885 11.6589 35.6033H11.7053C11.8447 35.6033 12.0769 36.1112 12.2627 36.4344C12.6343 37.1732 12.5879 38.2814 13.3311 39.2048C13.7027 39.7127 13.9814 40.2206 14.3066 40.4515C14.4459 40.0821 14.353 39.4819 14.3066 39.3433C14.2137 38.7893 13.8421 37.7735 14.864 36.8962C15.3285 38.2352 15.9323 37.8196 16.0252 38.4661C16.1646 39.3433 16.1181 39.2048 16.0252 39.8974C16.0717 40.8209 16.9542 41.0979 17.6974 41.6982C19.4161 42.6216 20.5773 43.1295 21.3205 44.33C21.6921 42.2984 16.211 41.929 16.9078 38.0043C16.8149 36.4344 17.0936 36.3421 15.9788 35.3725C18.1619 35.4186 19.3696 39.0201 19.509 39.6665C19.7412 40.867 20.4844 40.9132 21.4599 42.4831C21.5992 42.5293 19.6483 38.3275 21.9708 34.6799C21.9708 34.6799 22.7605 36.573 22.3889 37.7735C22.1566 38.5122 22.3889 39.3433 22.4353 39.8051C22.4818 40.2668 22.3424 38.0967 24.0146 36.9423C24.1075 37.7735 24.8972 39.0663 24.154 40.4515C23.225 42.1137 23.1785 41.5135 23.1321 43.5913C23.225 43.5451 23.4572 42.1599 24.1075 41.3749C25.4546 39.7127 24.4791 38.8354 25.7797 37.4041C25.8726 38.1428 26.0584 37.8196 26.1513 38.4661C26.3371 39.8974 24.8043 41.4673 25.1294 41.4211C25.501 41.3749 26.1513 41.0517 26.3371 39.9436C26.3371 39.9436 26.8945 40.9594 26.3836 41.2826C25.4546 41.8829 25.2688 42.5293 25.4081 43.268C26.1513 42.3908 27.1732 41.4211 26.9874 40.1745C27.0803 39.4357 27.87 39.1125 28.0558 37.3579C28.1022 37.0809 28.3809 36.7115 28.6596 36.573C28.5203 37.5426 29.3099 38.5584 28.4274 39.7589C28.6132 39.8512 29.3564 38.8354 30.4247 39.2048C28.2416 39.5742 28.8919 41.929 27.2197 42.991C26.7087 43.3142 26.8016 43.6836 26.6623 43.7298C28.1487 43.6374 29.3099 41.8829 29.4957 41.7443C30.9821 40.7285 31.3073 40.59 31.9111 38.974C32.1434 38.3737 31.9576 38.0967 32.7937 37.2656C33.1653 38.0967 32.6079 39.8051 32.515 40.1745C32.2363 40.9594 31.3073 41.652 31.4931 41.652C35.4878 39.8974 35.4413 38.6969 36.4168 37.4502C36.6955 36.9885 38.1354 36.1574 38.6464 36.0651C38.6464 36.2959 38.089 36.7115 38.089 37.2194C38.0425 38.0967 37.7638 38.6507 37.2993 39.3433C37.5316 39.6665 38.0425 38.7431 38.507 39.2048C37.8567 39.3895 37.578 40.1283 37.0671 40.5438V40.5438ZM37.7638 40.313C37.5316 41.4673 37.1135 42.5293 36.4168 43.5451C35.9058 44.2377 35.72 42.8987 36.1381 41.5596C36.7419 41.2826 37.3458 40.8209 37.7638 40.313ZM34.6981 10.9008C34.6052 10.8546 34.4194 10.8084 34.2801 10.8084C34.1407 10.8084 34.0943 10.9931 34.2336 11.0393C34.3265 11.0855 34.5123 11.0855 34.6981 11.0855C34.8375 11.1316 34.791 10.9469 34.6981 10.9008V10.9008ZM34.2336 11.4548C34.3265 11.501 34.5123 11.501 34.6981 11.501C34.791 11.501 34.791 11.3163 34.6981 11.2702C34.6052 11.224 34.4194 11.224 34.2801 11.1778C34.1407 11.2702 34.0943 11.4087 34.2336 11.4548V11.4548ZM34.2336 13.9944C34.1407 13.902 33.9085 13.7173 33.6762 13.5326C33.5369 13.625 33.3046 13.8097 33.1188 13.902C32.9795 13.7635 32.8401 13.5788 32.6079 13.3941C32.4685 13.4865 32.0505 13.8558 31.8647 13.9944C32.1434 13.9944 32.515 14.0867 32.515 14.3176V15.9336C32.6543 15.9798 32.8401 15.9336 33.0724 15.9336V14.2252C33.1653 14.1791 33.2582 14.1329 33.3046 14.0867C33.3975 14.1329 33.6762 14.4561 33.8156 14.5484C33.9085 14.4561 34.1872 14.2252 34.3265 14.1329C34.5123 13.9944 34.373 13.902 34.2336 13.9944V13.9944ZM33.5369 12.0089C33.6762 11.7319 33.9085 11.3163 33.862 10.9931C33.862 10.5776 33.5833 10.0235 33.0259 9.79262C32.2827 10.0697 31.8182 10.6237 31.8182 11.3163C31.8182 11.7319 32.1434 12.563 32.8866 12.563C33.0724 12.3783 33.3046 12.1474 33.5369 12.0089V12.0089ZM33.0724 12.1474C32.933 12.1013 32.4221 11.6857 32.3292 11.4087C32.1898 10.9931 32.1898 10.5776 32.6079 10.3005C32.933 10.439 33.3511 10.7623 33.3511 11.0393C33.3975 11.4548 33.3046 11.9166 33.0724 12.1474ZM33.0724 9.05385L33.6298 8.4536C33.6298 8.4536 33.3975 8.26891 33.2582 8.08422C33.2582 7.9457 33.2582 6.79137 33.3046 6.7452C32.8866 6.37582 32.6079 6.32964 32.4221 6.37582C32.0969 6.42199 31.7718 6.83755 31.6789 6.97606C31.586 7.06841 31.6324 7.20693 31.6789 7.2531C31.7253 7.29928 31.8182 7.34545 31.9111 7.39162C31.9111 7.39162 31.8647 7.39162 31.8647 7.34545C31.7253 7.48397 31.4931 7.89952 31.4931 8.17656C31.4931 8.4536 31.7718 8.86916 31.9111 9.00768C32.0969 8.86916 32.3756 8.63829 32.7937 8.54595C32.8401 8.82298 32.933 8.9615 33.0724 9.05385V9.05385ZM32.7472 7.71483C32.4685 7.62249 31.9576 7.39162 31.7718 7.20693C31.7253 7.16076 31.7253 7.16076 31.7718 7.06841C31.9111 6.88372 32.0505 6.7452 32.1434 6.7452C32.2363 6.7452 32.7472 7.02224 32.7472 7.16076V7.71483ZM32.7472 8.49977C32.6079 8.49977 32.4685 8.54595 32.3292 8.63829C32.1898 8.49977 31.8182 8.08422 32.0969 7.57631C32.0505 7.57631 32.004 7.53014 32.004 7.53014C32.2363 7.66866 32.5614 7.80718 32.7937 7.85335V8.31508C32.7472 8.36125 32.7472 8.4536 32.7472 8.49977V8.49977ZM31.2144 6.14495C31.075 6.14495 30.2389 6.14495 30.2389 6.09878C30.1925 5.91409 30.146 5.68322 30.2854 5.40618C30.3783 5.26766 30.2389 5.17532 30.146 5.36001C30.0996 5.49853 29.6815 6.09878 29.217 6.28347C28.9848 6.37582 29.4957 6.56051 29.4493 6.56051C29.4493 7.11458 29.5422 7.9457 29.6351 8.31508C29.728 8.49977 29.9602 8.82298 30.0996 8.73064C30.1925 8.68447 30.4247 8.22274 30.4712 8.17656C30.6105 8.08422 30.4712 7.89952 30.3783 7.99187C30.2854 8.08422 30.1925 7.9457 30.146 7.85335C30.0996 7.76101 30.0067 6.51433 30.0531 6.51433C30.0531 6.51433 31.075 6.37582 31.1679 6.37582C31.3073 6.32964 31.3073 6.14495 31.2144 6.14495V6.14495ZM28.4738 8.40743L28.8919 7.85335C28.6132 7.80718 28.4738 7.76101 28.2416 7.53014V6.19112L27.8235 5.77557H27.6842L27.0339 6.37582C26.9874 6.46816 27.1268 6.46816 27.2197 6.37582L27.6842 6.65285V7.9457C27.7306 8.08422 27.87 8.26891 28.0558 8.4536L28.4738 8.40743ZM28.1022 5.45236L28.3345 5.26766V4.94445L28.0093 4.62124L27.6842 4.89828V5.26766L27.87 5.45236H28.1022V5.45236ZM27.0339 5.0368C26.8481 5.0368 26.2907 5.08297 26.0584 5.08297C25.8262 5.12914 25.8262 5.22149 26.012 5.22149C26.1978 5.22149 26.2442 5.26766 26.2907 5.49853C26.3836 5.72939 25.9655 6.79137 25.8262 7.06841C25.6868 6.88372 25.2688 5.91409 25.2688 5.77557C25.2688 5.68322 25.4546 5.59087 25.5475 5.5447C25.7333 5.49853 25.7333 5.36001 25.5939 5.36001C25.2223 5.31384 24.0146 5.22149 23.7824 5.17532C23.643 5.17532 23.5501 5.36001 23.7359 5.36001C23.9217 5.36001 24.154 5.31384 24.3398 5.63705C24.572 6.00643 25.3617 7.66866 25.5475 8.36125C25.6404 8.22274 26.43 5.96026 26.4765 5.72939C26.5229 5.49853 26.7087 5.26766 26.941 5.22149C27.2661 5.17532 27.2197 5.08297 27.0339 5.0368ZM23.3179 10.4852C23.3179 11.4087 23.6895 11.501 24.154 11.7319C24.572 11.9627 25.2223 11.9166 25.7333 11.7781C25.9191 11.7319 26.012 11.7319 26.012 11.8704C26.012 11.9627 26.1513 11.9627 26.1513 11.8704V10.9008C26.1513 10.8084 26.012 10.8084 26.012 10.9008C26.012 11.0393 26.012 11.0855 25.8726 11.2702C25.501 11.7781 24.6185 11.7781 24.154 11.1316C24.0146 10.9008 23.8288 10.6237 24.0146 10.5776C24.2004 10.5314 24.7578 10.6237 25.1294 10.6699C25.3617 10.6699 25.8726 10.7161 25.9191 10.7622C25.9655 10.8084 26.0584 10.8546 26.0584 10.7622V10.162C26.0584 10.0697 25.9655 10.1158 25.9191 10.162C25.8726 10.2082 25.3152 10.3005 25.083 10.3467C24.8507 10.3929 24.154 10.439 24.0146 10.3929C23.8288 10.3467 23.8753 9.97731 24.0611 9.74644C24.5256 9.10002 25.501 9.1462 25.8726 9.70027C26.012 9.88496 26.012 9.93114 26.012 10.0697C26.012 10.162 26.1513 10.162 26.1513 10.0697V8.9615C26.1513 8.86916 26.012 8.86916 26.012 8.9615C26.012 9.00768 25.8726 9.05385 25.6868 9.00768C25.4081 8.91533 24.5256 9.05385 24.1075 9.23854C23.8753 9.46941 23.3179 9.93114 23.3179 10.4852ZM23.5037 12.1474C23.5037 12.4245 23.5966 14.687 23.5966 15.0102C23.5966 15.1949 23.8288 15.3796 24.0611 15.5181C24.154 15.3796 24.3862 15.0563 24.6185 14.9178C24.7114 14.8255 24.6649 14.7793 24.572 14.7793C24.3862 14.8716 24.2004 14.7793 24.2004 14.5946V12.1474C24.0146 12.1936 23.643 12.1936 23.5037 12.1474V12.1474ZM25.4081 14.0405C25.2688 14.1791 24.9901 14.5484 24.9901 14.8255C24.9901 15.1025 25.1294 15.3796 25.3152 15.5181C25.5939 15.3334 25.7797 15.0563 26.2442 14.8716C26.2907 15.1025 26.4765 15.1025 26.6158 15.241C26.7087 15.1025 27.1268 14.6408 27.2197 14.5484C27.3126 14.4561 27.2661 14.3637 27.1268 14.4561C26.9874 14.5484 26.8945 14.5023 26.7087 14.2714C26.7087 14.1329 26.7087 13.1632 26.7552 13.1171C26.5694 12.9324 26.3836 12.6553 26.1513 12.6553C25.8262 12.7015 25.4081 13.2556 25.3152 13.3941C25.2223 13.4865 25.3152 13.902 25.3617 13.9482C25.3617 14.0405 25.4081 14.0405 25.4081 14.0405V14.0405ZM25.6404 14.2252C25.8262 14.3176 25.9191 14.2714 26.1978 14.2252V14.6408C26.0584 14.7331 25.9191 14.8255 25.7333 14.8716C25.5939 14.7793 25.4081 14.687 25.6404 14.2252ZM25.501 13.3941C25.6404 13.2094 25.6868 13.1632 25.7797 13.1632C25.8726 13.1632 26.1978 13.3941 26.1978 13.5326V14.0405C25.9655 14.0867 25.7797 14.0867 25.501 13.8558C25.4546 13.8558 25.4546 13.4865 25.501 13.3941V13.3941ZM27.4984 13.0247C27.2661 13.1171 27.7771 13.3018 27.7306 13.3018C27.7306 13.8558 27.5913 14.7793 27.8235 15.0563C27.9629 15.241 28.1951 15.3334 28.3809 15.2872C28.5667 15.241 28.799 14.8716 28.8454 14.8255C28.9848 14.7331 28.8454 14.6408 28.7525 14.7331C28.6596 14.8255 28.3345 14.7793 28.3345 14.6408C28.288 14.5484 28.288 13.3018 28.3345 13.3018H28.7525C28.8454 13.3018 28.8454 13.0709 28.7525 13.0709C28.6132 13.0709 28.3345 13.0247 28.3345 12.9786C28.288 12.8862 28.3345 12.5168 28.4274 12.3321C28.5203 12.1936 28.3809 12.1013 28.288 12.2398C28.2416 12.4707 27.87 12.84 27.4984 13.0247V13.0247ZM27.5913 10.4852C27.5913 10.9931 27.359 11.5472 27.0339 11.8242C27.5448 11.6857 27.6377 11.3625 27.9164 11.0393C28.0558 11.2702 28.3809 11.5472 28.5667 11.6857C28.7061 11.5934 29.1241 11.1316 29.217 11.0393C28.8919 10.9469 28.3345 10.6699 28.1951 10.3005C28.1022 10.0697 28.1022 9.93114 28.2416 9.74644C28.3345 9.88496 29.0777 10.2082 29.4028 9.6541C29.0312 9.51558 28.7525 9.28471 28.6132 9.10002C28.5203 9.19237 28.1951 9.51558 28.0093 9.60792C27.9629 9.42323 27.6842 9.23854 27.4519 9.19237C27.359 9.28471 26.8016 9.70027 26.5694 9.79262C26.4765 9.83879 26.5229 9.97731 26.6158 9.97731C26.7087 9.93114 26.8945 9.79262 27.0803 9.70027C27.3126 9.79262 27.5448 10.0235 27.5913 10.4852V10.4852ZM30.0531 10.5776C30.0996 10.2543 30.3318 10.1158 30.4247 10.0235C30.5641 10.162 30.7034 10.3467 30.9357 10.3467C31.1679 10.3467 31.3537 10.2543 31.4466 10.162C31.2608 10.0235 30.8892 9.60793 30.7963 9.51558C30.6105 9.60793 29.6815 10.0697 29.6351 10.6237C29.5422 11.4087 29.7744 11.5472 30.0996 12.0089C30.2854 12.2398 30.6105 12.286 30.7499 12.2398C30.8892 12.1474 31.4931 11.5934 31.5395 11.501C31.586 11.4548 31.4931 11.3625 31.4466 11.4548C31.3537 11.501 31.4002 11.5472 31.3073 11.5472C31.2144 11.5472 30.7963 11.6395 30.5641 11.501C30.3318 11.3625 29.9602 11.0393 30.0531 10.5776V10.5776ZM29.6351 13.0709C29.4957 13.2094 29.2635 13.3479 29.0777 13.5788C29.2635 13.5788 29.4028 13.625 29.4957 13.8097C29.5886 13.9944 29.4957 14.687 29.5422 14.964C29.5422 15.241 29.728 15.2872 29.9138 15.5181C30.146 15.4719 30.7034 15.241 30.8892 15.1025C30.8892 15.3334 31.1679 15.5642 31.3073 15.6104C31.4002 15.4719 31.5395 15.4257 31.6789 15.2872C31.5395 15.1949 31.5395 15.1487 31.4931 14.964C31.4466 14.7793 31.4931 13.9944 31.4931 13.6711C31.3537 13.4865 31.1679 13.2556 30.9357 13.1171L30.3783 13.6711C30.5641 13.625 30.8892 13.7173 30.8892 13.8558C30.8892 14.0405 30.9357 14.4561 30.8892 14.7793C30.8428 15.1025 29.9602 14.964 29.9602 14.7331C29.9602 14.5023 30.0067 13.8558 30.0067 13.5788C29.9138 13.3479 29.8673 13.2556 29.6351 13.0709V13.0709ZM23.8753 20.828C23.3643 20.7356 22.9927 20.3662 22.5282 20.1815C21.8779 19.9507 21.2276 20.4124 21.2276 20.5048C21.2276 20.6894 21.4134 20.7818 21.9244 20.4586C21.5063 20.9203 21.9708 21.2897 21.9708 21.2897C21.785 21.2435 21.5528 21.1973 21.4134 21.105C21.367 21.2897 21.5992 21.3359 21.7386 21.4282C22.5747 21.7976 23.1321 20.9665 23.8753 20.828V20.828ZM22.4353 21.2897C22.4353 21.2897 22.6676 21.0588 22.6676 20.8741C22.6676 20.6433 22.4353 20.4586 22.4353 20.4586C22.6211 20.5048 23.0856 20.7818 23.2714 20.8741L22.4353 21.2897ZM17.7439 14.8255L17.9761 14.5484C17.6974 14.5023 17.8368 14.5023 17.6974 14.3637V13.2556L17.3258 12.7477H17.1865L16.6291 13.2556C16.4897 13.3941 16.6291 13.4403 16.7684 13.3018L17.14 13.4865V14.687C17.1865 14.8255 17.2794 14.8716 17.4652 15.0563L17.7439 14.8255V14.8255ZM17.8832 10.9931C18.069 11.5472 18.5335 11.6857 18.8587 11.7319C18.9516 11.5472 19.1374 11.2702 19.2303 11.1316C19.3696 10.9469 19.2303 10.8084 19.1374 11.0393C19.0445 11.224 18.6264 11.0393 18.4871 10.8546C18.2548 10.6699 18.1619 10.162 18.3013 9.97731C18.4871 9.79262 18.7193 9.88496 19.0445 9.88496C19.2303 9.88496 19.2767 9.70027 19.3232 9.60792C19.2303 9.56175 19.0909 9.46941 18.8587 9.37706C18.6729 9.51558 18.3477 9.74644 18.2084 9.88496C18.0226 9.97731 17.6974 10.439 17.8832 10.9931V10.9931ZM18.6729 13.902C18.4871 14.1329 18.3013 14.3176 18.3013 14.6408C18.3013 14.9178 18.3942 15.1949 18.6729 15.3334C18.9051 15.1487 19.2303 14.9178 19.5554 14.8716C19.6948 15.0563 19.927 15.1949 20.0664 15.2872C20.1593 15.1949 20.4844 14.9178 20.5773 14.8255C20.6702 14.7331 20.5773 14.6408 20.4844 14.7331C20.438 14.8255 20.2057 14.7793 20.1593 14.6408C20.1593 14.5023 20.0664 13.3018 20.1128 13.2094C19.927 13.0247 19.6019 12.563 19.4161 12.563C19.0909 12.6092 18.6729 13.0247 18.58 13.1632C18.4871 13.3479 18.58 13.8558 18.6729 13.902V13.902ZM19.509 14.0405C19.2767 14.0405 19.0909 13.9944 18.8122 13.7635C18.7658 13.7173 18.7193 13.4403 18.7658 13.3479C18.8587 13.1632 18.8587 13.1171 18.9516 13.1171C19.0445 13.1171 19.509 13.3941 19.4625 13.5326C19.509 13.625 19.509 13.8097 19.509 14.0405ZM18.9051 14.0405C19.1374 14.1791 19.2303 14.1791 19.509 14.1329V14.4561C19.509 14.5023 19.5554 14.5484 19.5554 14.6408C19.4161 14.687 19.2303 14.7331 19.0909 14.7793C18.9516 14.687 18.4871 14.4099 18.9051 14.0405V14.0405ZM20.6238 11.7781L20.856 11.501C20.5773 11.4548 20.5773 11.4548 20.438 11.3163V10.0235L20.2057 9.6541H20.0664L19.509 10.2082C19.3696 10.3467 19.509 10.3929 19.6483 10.2543L19.927 10.439V11.6395C19.9735 11.7781 20.0664 11.8242 20.2522 12.0089L20.6238 11.7781V11.7781ZM20.1593 7.2531C20.0664 7.2531 19.8806 7.43779 20.5309 7.53014C20.6702 7.53014 20.8096 7.29928 20.1593 7.2531ZM20.1593 6.83755C20.0664 6.83755 19.8806 7.16076 20.5309 7.11458C20.6702 7.11458 20.7631 6.88372 20.1593 6.83755ZM20.2986 8.86916L20.0199 8.59212L19.7412 8.86916V9.23854L19.927 9.42323H20.1128L20.3451 9.23854L20.2986 8.86916V8.86916ZM19.6948 6.09878C19.509 5.96026 19.2767 5.63705 18.8122 5.63705C18.3477 5.63705 17.7903 6.0526 17.6045 6.32964C17.3723 6.69903 17.651 7.02224 17.9761 7.2531C17.7903 7.43779 17.5116 7.66866 17.2794 7.89952C17.3723 7.99187 17.9297 8.26891 18.2548 8.26891C18.7193 8.26891 19.1374 8.03804 19.4161 7.80718C19.8806 7.43779 19.7412 7.02224 19.2303 6.7452C19.1838 6.69903 19.1374 6.69903 19.0909 6.69903C19.3696 6.42199 19.6483 6.19112 19.6948 6.09878V6.09878ZM18.4871 7.11458C18.6264 7.20693 18.8122 7.2531 18.998 7.34545C19.2767 7.48397 19.1374 7.76101 18.8587 7.89952C18.58 8.03804 18.069 7.66866 17.9761 7.53014C18.069 7.43779 18.2548 7.29928 18.4871 7.11458V7.11458ZM18.998 6.42199C18.9516 6.46816 18.8122 6.56051 18.7193 6.65285H18.4871C18.2548 6.60668 18.1155 6.42199 18.0226 6.28347C17.9297 6.14495 18.2084 6.00643 18.3477 6.00643C18.4871 6.09878 18.8122 6.2373 18.998 6.42199ZM17.0007 7.48397C16.3039 7.66866 15.9788 7.11458 15.8859 6.92989C16.1646 6.65285 16.6755 6.14495 16.9542 5.91409C16.7684 5.72939 16.6755 5.45236 16.3039 5.40618C15.9788 5.40618 15.282 5.77557 15.1427 6.65285C15.0033 7.53014 15.8394 7.99187 16.4897 7.99187C16.722 7.99187 16.9542 7.71483 17.0936 7.66866C17.4187 7.53014 17.3258 7.39162 17.0007 7.48397V7.48397ZM15.8394 6.79137C15.6536 6.2373 15.7465 6.00643 16.0717 5.72939C16.1646 5.91409 16.3504 6.0526 16.4897 6.14495C16.3039 6.32964 15.9788 6.69903 15.8394 6.79137ZM15.0033 6.28347C15.1427 6.14495 15.0033 6.09878 14.9104 6.19112C14.8175 6.09878 14.6317 5.86791 14.4924 5.77557C14.3995 5.86791 14.1208 6.0526 13.935 6.09878C13.8421 5.96026 13.6563 5.96026 13.424 5.77557C13.2847 5.86791 13.006 6.09878 12.8666 6.28347C13.1453 6.37582 13.3311 6.37582 13.3776 6.60668V8.17656C13.5169 8.22274 13.7027 8.17656 13.8885 8.17656V6.37582C13.9814 6.32964 14.0279 6.28347 14.0743 6.2373C14.1672 6.28347 14.353 6.56051 14.4459 6.60668C14.6317 6.56051 14.9104 6.37582 15.0033 6.28347ZM12.7737 9.28471C12.4485 9.33089 12.0305 9.6541 11.8911 9.97731C11.8447 10.1158 11.8911 10.5314 11.984 10.5776C12.0305 10.6237 12.0769 10.6237 12.0769 10.6699C11.8911 10.8546 11.7053 11.0393 11.7053 11.3163C11.7053 11.5934 11.9376 11.8242 12.2163 11.9627C12.3556 11.7319 12.5879 11.5934 12.8666 11.5472C12.8666 11.7781 12.9595 11.9166 13.0989 12.0089C13.1918 11.9166 13.6098 11.5472 13.7027 11.4548C13.7956 11.3625 13.7027 11.2702 13.6098 11.3625C13.5634 11.4087 13.424 11.3163 13.3776 11.2702C13.3776 11.1316 13.3776 9.93114 13.424 9.88496C13.1453 9.6541 12.9595 9.23854 12.7737 9.28471V9.28471ZM12.8202 10.5314C12.495 10.7622 12.3556 10.7623 12.1234 10.4852C11.984 10.3467 12.0305 10.1158 12.0769 9.97731C12.1698 9.79262 12.3556 9.6541 12.4485 9.6541C12.5414 9.6541 12.8201 9.97731 12.7737 10.162C12.7737 10.2082 12.7737 10.3929 12.8202 10.5314ZM12.8202 11.1316V11.3163C12.7737 11.3163 12.6808 11.3625 12.5879 11.4087C12.4485 11.3163 11.8447 11.0855 12.2627 10.8084C12.495 10.9469 12.5879 10.8546 12.8202 10.7161V11.1316V11.1316ZM12.5414 8.54595C12.495 8.49977 12.4021 8.40743 12.4021 8.31508V7.39162C12.4021 7.29928 12.2163 7.29928 12.2163 7.39162C12.2163 7.53014 12.2163 7.76101 12.1234 7.9457C11.7982 8.4536 11.1479 8.63829 10.7299 8.03804C10.5905 7.85335 10.5441 7.53014 10.5441 7.29928C10.4976 7.02224 10.7299 6.60668 10.7763 6.60668C11.3337 5.86791 12.1234 6.42199 12.1698 6.69903C12.2163 6.88372 12.2627 7.16076 12.2627 7.2531C12.2627 7.34545 12.4485 7.34545 12.4485 7.2531V5.96026C12.4485 5.86791 12.3092 5.86791 12.3092 5.96026C12.3092 6.14495 12.2163 6.14495 12.0769 6.09878C11.7982 6.00643 11.1479 5.86791 10.8228 6.09878C10.4976 6.28347 10.0331 6.7452 10.0331 7.29928C10.0331 8.22274 10.4047 8.26891 10.7763 8.54595C11.1479 8.77681 11.6589 8.63829 12.1234 8.49977C12.3092 8.4536 12.3556 8.54595 12.4485 8.68446C12.495 8.82298 12.6343 8.68447 12.5414 8.54595V8.54595ZM9.9867 9.83879C9.66155 10.3005 9.47575 11.0855 10.0331 11.5472C10.3118 11.7781 10.4976 11.9166 11.055 11.8242C11.1479 11.5934 11.1944 11.5472 11.3802 11.3163C11.0086 11.3625 10.7299 11.3163 10.4512 11.1316C9.8938 10.7161 10.0796 10.0235 10.2189 9.79262C10.4976 9.37706 10.9157 9.97731 11.0086 10.0697C11.1015 9.93114 11.2873 9.79262 11.4266 9.6541C11.2873 9.42323 11.1479 9.23854 11.0086 9.10002C10.7299 9.19237 10.2189 9.51558 9.9867 9.83879V9.83879ZM10.2189 13.9944C10.0796 14.8716 10.9157 15.3796 11.3337 15.5642C11.4266 15.3796 11.6124 15.0563 11.8447 14.8255C11.984 14.6408 11.8447 14.5946 11.7053 14.7331C11.5195 14.9178 10.9621 14.7331 10.8228 14.5023C11.1015 14.3176 11.7518 13.7173 12.0769 13.4865C11.8911 13.3018 11.566 12.84 11.5195 12.6092C11.2408 12.7015 10.3583 13.0709 10.2189 13.9944V13.9944ZM11.055 13.0247C11.1479 13.2094 11.3802 13.625 11.5195 13.6711C11.3337 13.8558 10.8228 14.1791 10.6834 14.2714C10.4512 13.9944 10.3118 13.4865 11.055 13.0247ZM12.8666 12.7477C12.6808 12.8862 12.5414 13.0709 12.3092 13.2556C12.4021 13.3941 12.6344 13.5326 12.6344 13.7635V15.3334H13.0989C13.0524 15.1487 13.0989 13.7635 13.0989 13.5788C13.2382 13.4865 13.2382 13.4403 13.3776 13.3479C13.4705 13.4403 13.7027 13.4865 13.7027 13.625C13.7027 13.7635 13.7492 14.4099 13.7027 14.687C13.6563 14.964 13.6563 15.1949 13.8421 15.4719C13.9814 15.3334 14.3995 15.0102 14.5388 14.9178C14.6317 14.8255 14.5853 14.7793 14.4459 14.8255C14.3066 14.8716 14.3066 14.8716 14.3066 14.7793C14.3066 14.6408 14.2601 13.902 14.2137 13.4403C14.2137 12.9786 13.9814 12.84 13.8421 12.7939C13.7027 12.9324 13.424 13.1171 13.2382 13.2556C13.0989 13.1632 13.006 12.9786 12.8666 12.7477V12.7477ZM14.7246 11.5934C14.864 11.4548 15.0033 11.2702 15.0498 11.224C15.1891 11.1316 15.0498 11.0393 14.9569 11.1316C14.864 11.224 14.6782 11.0393 14.6317 10.9931C14.5853 10.9008 14.4459 9.83879 14.4924 9.83879C14.4924 9.83879 15.1891 9.74644 15.2356 9.74644C15.282 9.74644 15.3285 9.51558 15.2356 9.51558C15.1427 9.51558 14.6317 9.60793 14.5853 9.51558C14.5388 9.42323 14.4924 9.00768 14.6782 8.68446C14.7711 8.54595 14.6782 8.40743 14.6317 8.54595C14.5853 8.68447 14.1672 9.33089 13.8885 9.46941C13.6563 9.56175 13.7027 9.60793 13.8421 9.6541C13.935 9.6541 14.0743 9.79262 14.0743 9.79262C14.0743 10.3467 13.9814 10.9931 14.1672 11.2702C14.3066 11.5472 14.5853 11.7319 14.7246 11.5934V11.5934ZM17.0471 11.8704C16.9542 12.0551 16.8149 12.1936 16.5826 12.286C16.722 12.4245 16.9078 12.563 17.0471 12.6553C17.1865 12.4707 17.3258 12.3321 17.5116 12.1936C17.3258 12.1474 17.14 12.0551 17.0471 11.8704ZM15.9788 11.2702C16.211 11.2702 16.5362 11.3625 16.9078 11.3625C17.3723 11.3163 17.7439 10.6237 17.5116 10.0697C17.3258 9.56175 16.7684 9.6541 16.3504 9.51558C15.9788 9.42323 15.8394 9.19237 16.2575 8.91533C16.722 8.63829 17.2794 9.10002 17.3258 9.19237C17.4187 9.33089 17.4652 9.33089 17.4652 9.14619C17.4652 8.73064 17.4187 8.9615 17.3723 8.54595C17.3723 8.40743 17.2329 8.40743 17.2329 8.54595C17.2329 8.68447 17.0471 8.63829 16.9078 8.63829C16.7684 8.63829 16.3968 8.59212 16.0717 8.77681C15.8394 8.91533 15.3749 9.28471 15.6536 9.74644C15.793 10.0235 16.722 10.2082 16.9542 10.3929C17.1865 10.5314 17.2329 10.9469 17.0007 11.1316C16.722 11.3625 15.9788 11.1778 15.8394 11.0393C15.7001 10.8546 15.6072 10.7161 15.6072 10.5314C15.5607 10.3467 15.4214 10.3467 15.4214 10.5314C15.4214 10.7161 15.4678 11.3163 15.5143 11.501C15.5607 11.6395 15.7001 11.5934 15.7001 11.501C15.8394 11.3163 15.8859 11.2702 15.9788 11.2702V11.2702ZM15.0033 13.2094C14.8175 13.3479 15.1891 13.5326 15.1891 13.5326C15.1891 14.0867 15.1427 14.6408 15.3285 14.9178C15.4678 15.1025 15.793 15.1949 15.8859 15.0563C15.9323 14.8716 16.211 14.5484 16.3039 14.5023C16.3968 14.4099 16.3039 14.3176 16.211 14.4099C16.0252 14.6408 15.8859 14.5023 15.7465 14.3637C15.6536 14.2714 15.6536 13.5326 15.7001 13.4865C15.7001 13.4865 16.0717 13.4403 16.1646 13.4403C16.211 13.4403 16.211 13.2094 16.1646 13.2094C16.0717 13.2094 15.7465 13.2094 15.7001 13.1632C15.6536 13.0709 15.7465 12.563 15.793 12.3321C15.793 12.1474 15.7001 12.1013 15.6536 12.286C15.5607 12.3783 15.2356 13.0247 15.0033 13.2094V13.2094Z" fill="#C0C0C0"/>
</svg>
