<svg width="279" height="57" viewBox="0 0 279 57" fill="none" xmlns="http://www.w3.org/2000/svg">
<path d="M94.9722 13.1853H69.4061V18.8242H78.5641V41.168H85.8566V18.8242H94.9722V13.1853ZM114.96 37.0554C113.942 37.0554 113.434 36.5042 113.434 35.4018V27.6854C113.434 22.216 109.83 19.545 103.3 19.545C97.5343 19.545 94.2272 22.0464 93.5065 26.0743L99.3574 27.7702C99.7814 25.3111 101.265 24.5055 103.3 24.5055C105.208 24.5055 106.311 25.7351 106.311 27.643V28.4062L101.52 29.3389C95.4992 30.5261 93.2521 32.7732 93.2521 36.2922C93.2521 39.7264 95.6264 41.5919 99.8238 41.5919C103.724 41.5919 106.183 40.3624 107.371 38.3273C108.007 40.6168 109.999 41.5919 112.84 41.5919C113.9 41.5919 114.875 41.38 115.723 40.9136L116.274 36.8858C115.893 37.013 115.469 37.0554 114.96 37.0554ZM102.452 36.9282C101.138 36.9282 100.375 36.2922 100.375 35.105C100.375 33.9179 101.096 33.3243 102.876 32.9003L106.311 32.0948V33.9179C106.311 35.8682 104.233 36.9282 102.452 36.9282ZM125.816 10.9806H118.608V34.8931C118.608 39.5992 120.516 41.5919 125.053 41.5919C126.622 41.5919 128.445 41.168 129.462 40.532L129.929 36.0802C129.166 36.3346 128.614 36.4618 127.766 36.4618C126.282 36.4618 125.816 35.6986 125.816 33.8331V10.9806ZM147.912 41.168H155.883L147.615 28.279L155.416 19.9689H147.445L139.347 28.8725V10.9806H132.14V41.168H139.347V36.2922L142.782 32.4764L147.912 41.168ZM249.339 13.1853H242.089V29.8901C242.089 33.9179 240.35 35.8682 236.831 35.8682C233.355 35.8682 231.659 33.9179 231.659 29.8901V13.1853H224.324V29.7629C224.324 37.6489 228.606 41.5919 236.831 41.5919C245.099 41.5919 249.339 37.6489 249.339 29.7629V13.1853ZM267.652 19.545C264.218 19.545 261.716 21.5377 260.572 24.4631L260.36 19.9689H254.042V50.0716H261.25V37.6065C262.395 40.0232 264.557 41.5919 267.652 41.5919C273.079 41.5919 276.386 37.5217 276.386 30.4837C276.386 23.5728 273.164 19.545 267.652 19.545ZM265.151 36.2922C262.649 36.2922 261.25 34.2995 261.25 30.7804V30.3565C261.25 26.7102 262.734 24.8447 265.151 24.8447C267.61 24.8447 269.136 26.583 269.136 30.5685C269.136 34.5539 267.61 36.2922 265.151 36.2922Z" fill="#422E60"/>
<path d="M193.111 13.1853H183.148L178.781 27.4734L177.169 33.3667H177.085L175.516 27.431L171.106 13.1853H160.719V41.168H167.206V28.3214L166.994 19.7146H167.079L173.99 41.168H179.883L186.794 19.7146H186.879L186.667 28.3214V41.168H193.111V13.1853ZM219.023 30.2717C219.023 23.5728 215.334 19.545 208.423 19.545C201.343 19.545 197.358 23.5728 197.358 30.5685C197.358 37.5641 201.385 41.5919 208.805 41.5919C213.723 41.5919 217.327 39.7264 218.557 36.0378L212.706 34.1723C212.239 35.6562 210.925 36.5042 208.805 36.5042C206.388 36.5042 204.82 35.4018 204.353 32.646H218.811C218.938 32.0948 219.023 30.9924 219.023 30.2717ZM208.381 24.5903C210.628 24.5903 211.942 26.0319 212.282 28.7453H204.311C204.735 25.9047 206.092 24.5903 208.381 24.5903Z" fill="#F78131"/>
<path d="M19.0487 28.3015C13.9037 33.4464 5.55953 33.4464 0.414551 28.3015L9.73163 18.9844L19.0487 28.3015Z" fill="#F78131"/>
<path d="M19.0484 9.6674L9.73145 18.9844L19.0484 28.3013L28.3654 18.9844L19.0484 9.6674Z" fill="#FBB03B"/>
<path d="M47.0021 18.9844L56.3192 28.3015C51.1742 33.4464 42.83 33.4464 37.6851 28.3015L47.0021 18.9844Z" fill="#0098A9"/>
<path d="M28.3671 18.9858L37.6841 28.3027L47.0011 18.9858L37.6841 9.66879L28.3671 18.9858Z" fill="#80CDB3"/>
<path d="M28.3658 0.350995L19.0488 9.66797L28.3658 18.9849L37.6828 9.66797L28.3658 0.350995Z" fill="#F6EF81"/>
<path d="M28.3648 18.9848L19.0479 28.3018L28.3648 37.6187L37.6818 28.3018L28.3648 18.9848Z" fill="#422E60"/>
<path d="M28.3648 37.6186L19.0479 46.9355L28.3648 56.2525L37.6818 46.9355L28.3648 37.6186Z" fill="#422E60"/>
</svg>
